<svg width="100" height="100" viewBox="0 0 100 100" fill="none" xmlns="http://www.w3.org/2000/svg">
<path d="M13.1958 82.8375C14.2742 83.976 15.6714 84.3555 16.3549 83.5965C15.6563 84.2948 15.9752 85.6913 17.0991 86.7994L17.4029 87.0879C26.7751 95.7504 39.181 100.38 51.9401 99.9756C64.962 99.5357 77.2914 94.0064 86.2775 84.5765C95.2636 75.1466 100.189 62.5691 99.9945 49.548C99.8312 36.3844 94.4977 23.8124 85.1444 14.5435C75.791 5.27461 63.1674 0.0515203 49.996 0.000750139C36.9713 -0.0707272 24.4385 4.96839 15.0919 14.0348C5.74516 23.1013 0.330819 35.4712 0.0127532 48.4854C-0.279352 61.2225 4.45636 73.5627 13.1958 82.8375V82.8375ZM51.2718 94.4198C39.7703 95.1549 28.4296 91.4184 19.6203 83.9912V83.9912C19.5478 83.9401 19.4717 83.8944 19.3925 83.8545C25.9235 80.3184 31.2412 74.903 34.6563 68.3103C38.9931 72.3552 44.7174 74.5829 50.6491 74.5341C55.8891 74.4699 60.9633 72.6887 65.0927 69.464C68.1077 75.0914 72.603 79.7891 78.0936 83.05C70.7023 89.7712 61.244 93.7806 51.2718 94.4198V94.4198ZM30.9808 49.6087C31.4495 44.9037 33.7053 40.5574 37.2838 37.4648C40.7055 34.4764 45.1368 32.9012 49.6781 33.0591C54.2194 33.217 58.5305 35.096 61.7362 38.3148C64.9111 41.5142 66.7468 45.8025 66.8697 50.307C66.9946 54.885 65.3647 59.3378 62.3134 62.7545C59.1925 66.2754 54.8489 68.4786 50.1631 68.9175C45.2662 69.3808 40.377 67.9583 36.494 64.9404C36.008 64.5761 35.0511 64.8189 34.3373 65.5172C34.2466 65.6211 34.1652 65.7329 34.0943 65.8512V65.8512C34.2181 65.7826 34.3308 65.6956 34.4284 65.5931C35.1271 64.8948 35.3701 63.9537 34.9904 63.4831L34.8689 63.3313C31.8654 59.4221 30.474 54.5115 30.9808 49.6087V49.6087ZM92.3701 50.0793C92.5555 60.7063 88.8257 71.0307 81.8905 79.0881C78.6568 73.68 74.0239 69.2435 68.4796 66.2459C72.4052 61.7632 74.5646 56.0061 74.5548 50.0489C74.5041 44.4223 72.5443 38.9795 68.996 34.6109C74.1993 31.6765 78.569 27.4658 81.6931 22.3759C88.4089 30.0633 92.1905 39.8754 92.3701 50.0793V50.0793ZM50.2846 7.57552C60.3668 7.86242 70.0338 11.6521 77.6227 18.2925C72.5351 21.4096 68.3271 25.7722 65.3965 30.9678C60.9632 27.379 55.4276 25.4276 49.7226 25.4423C43.8615 25.4612 38.2022 27.5837 33.7754 31.4231C30.7406 25.9055 26.2694 21.3108 20.8353 18.1256C29.0067 11.0933 39.5051 7.35397 50.2846 7.63624V7.57552ZM16.8713 21.7687C20.1148 27.2972 24.8105 31.8328 30.4492 34.8842C27.2075 39.0642 25.44 44.1985 25.422 49.4872C25.4473 55.3661 27.7182 61.0133 31.7706 65.2743C25.132 68.7032 19.6808 74.0511 16.1271 80.6212C16.1271 80.6212 16.0359 80.4694 15.9752 80.3935L15.717 80.0899C8.37123 71.1985 4.73748 59.8191 5.57151 48.3184C6.27316 38.4667 10.2691 29.1371 16.9168 21.8295L16.8713 21.7687Z" fill="#E00B80"/>
</svg>
