<svg width="500" height="441" viewBox="0 0 500 441" fill="none" xmlns="http://www.w3.org/2000/svg">
<g clip-path="url(#clip0)">
<path d="M0 164.399C-2.47734e-06 100.719 27.2756 60.756 70.1373 19.8188C84.0607 6.52057 115.272 0 138.326 0C214.44 0 218.933 107.514 292.239 128.01C354.803 145.503 409.416 79.8982 458.49 122.487C507.629 165.132 507.014 226.906 488.039 289.16C463.56 369.468 401.095 420.62 318.216 433.74C242.3 445.758 175.688 447.815 115.272 400.275C33.4056 335.856 4.05407e-06 268.609 0 164.399Z" fill="#FCE7F2"/>
<path d="M395.285 258.201V257.432L396.868 213.084V207.523C397.005 204.446 396.529 201.372 395.466 198.482C394.294 195.432 392.474 192.672 390.133 190.394C387.792 188.115 384.984 186.37 381.904 185.281C379.14 184.414 376.257 183.987 373.36 184.015H367.844H363.911C359.935 174.611 354.604 165.838 348.089 157.976L348.631 105.671C348.631 102.597 347.413 99.6491 345.244 97.4715C343.075 95.2939 340.132 94.0646 337.058 94.0526C325.509 93.9232 314.093 96.5256 303.74 101.647C295.286 106.095 287.85 112.253 281.905 119.73L253.967 120.047C254.253 113.299 253.122 106.566 250.646 100.282C248.169 93.9983 244.404 88.3034 239.591 83.5645C234.101 78.1636 227.47 74.0618 220.186 71.5607C212.902 69.0596 205.15 68.2228 197.5 69.1119C189.85 70.0009 182.497 72.5931 175.98 76.698C169.464 80.8029 163.951 86.316 159.845 92.832C155.893 99.1407 153.435 106.269 152.657 113.673C152.295 117.25 152.295 120.855 152.657 124.432L154.104 133.473C154.104 133.926 155.008 134.287 156.274 134.513C144.456 141.031 134.003 149.765 125.488 160.236C112.864 175.643 105.372 194.61 104.059 214.485V214.485C104.035 215.166 104.146 215.844 104.386 216.482C104.626 217.119 104.989 217.703 105.456 218.199C105.923 218.695 106.483 219.093 107.105 219.372C107.726 219.65 108.397 219.802 109.077 219.82C110.416 219.957 111.759 219.621 112.875 218.869C113.99 218.117 114.806 216.998 115.18 215.706V215.028C119.333 194.257 130.56 175.569 146.948 162.148C163.336 148.728 183.871 141.406 205.053 141.43C213.642 141.43 223.136 141.746 232.177 141.837L287.33 142.47C289.177 142.479 291 142.045 292.644 141.203C294.288 140.361 295.706 139.137 296.778 137.633V137.633C303.479 127.902 313.628 121.082 325.169 118.555L325.621 161.773V162.135C325.637 164.812 326.671 167.382 328.514 169.323C336.343 177.494 342.487 187.125 346.597 197.668V198.165C347.341 200.103 348.665 201.764 350.389 202.921C352.112 204.078 354.151 204.675 356.226 204.63L375.258 204.223C375.678 204.314 376.072 204.494 376.416 204.752C376.759 205.009 377.043 205.338 377.248 205.715C377.565 206.295 377.707 206.954 377.654 207.614V213.174L379.101 255.081C370.793 267.402 359.685 277.58 346.687 284.783C345.554 285.447 344.706 286.507 344.306 287.758C343.905 289.009 343.981 290.364 344.517 291.564C343.427 290.884 342.125 290.627 340.858 290.844C339.591 291.061 338.448 291.735 337.646 292.739L337.329 293.281C326.66 311.997 316.112 330.804 305.684 349.7L270.875 348.615L271.462 320.813C271.474 319.364 271.201 317.927 270.657 316.585C270.114 315.242 269.311 314.019 268.296 312.986C267.28 311.954 266.07 311.131 264.737 310.566C263.403 310.001 261.971 309.704 260.522 309.692H260.206L209.573 309.24C206.488 309.252 203.533 310.486 201.355 312.672C199.178 314.858 197.955 317.818 197.955 320.903V320.903V347.395L166.672 347.802C163.507 338.76 160.433 330.261 156.816 320.948C152.297 309.276 146.823 297.997 140.451 287.224C137.242 281.934 133.851 276.736 130.415 271.672C127.27 267.067 124.532 262.196 122.233 257.116C117.653 246.737 115.076 235.586 114.638 224.25C114.401 223.026 113.731 221.928 112.752 221.156C111.773 220.384 110.549 219.99 109.304 220.046C108.03 219.861 106.735 220.177 105.689 220.927C104.644 221.677 103.93 222.803 103.698 224.069V224.747C102.852 237.645 104.573 250.583 108.761 262.812C110.869 268.956 113.548 274.889 116.763 280.533C119.656 285.687 122.459 290.886 125.126 296.13C130.404 306.337 134.937 316.913 138.688 327.775L149.267 361.951C149.94 364.097 151.272 365.977 153.073 367.324C154.875 368.671 157.054 369.417 159.303 369.456H159.845L210.478 370.134C211.986 370.14 213.48 369.849 214.875 369.277C216.271 368.706 217.54 367.865 218.61 366.803C219.681 365.741 220.532 364.478 221.114 363.087C221.697 361.696 222 360.204 222.005 358.697V332.431L249.898 332.16L250.441 358.787V359.375C250.482 360.711 250.786 362.025 251.335 363.244C251.884 364.462 252.668 365.561 253.642 366.476C254.617 367.391 255.761 368.105 257.012 368.578C258.262 369.051 259.593 369.272 260.929 369.23L311.561 367.648H312.149C313.712 367.609 315.232 367.13 316.536 366.266C317.839 365.403 318.872 364.189 319.518 362.765C329.283 341.186 338.882 319.517 348.315 297.757C348.525 297.264 348.633 296.733 348.633 296.197C348.633 295.661 348.525 295.131 348.315 294.638C349.493 295.09 350.798 295.09 351.977 294.638L352.7 294.321C369.056 287.163 383.299 275.924 394.065 261.682C394.818 260.673 395.244 259.458 395.285 258.201V258.201ZM232.177 119.956C222.819 120.182 214.094 119.956 204.194 120.635C194.054 121.107 184.035 123.041 174.447 126.376C171.464 127.416 168.661 128.772 165.767 130.038L166.717 124.296C167.215 121.735 167.941 119.224 168.887 116.792C170.673 112.253 173.261 108.073 176.527 104.45C182.774 97.5858 191.308 93.2309 200.532 92.1991C209.527 91.3398 218.541 93.6407 226.024 98.7063C233.507 103.772 238.991 111.286 241.535 119.956H232.177Z" fill="black"/>
<path d="M311.697 206.8C318.687 206.8 324.355 201.132 324.355 194.141C324.355 187.151 318.687 181.483 311.697 181.483C304.706 181.483 299.039 187.151 299.039 194.141C299.039 201.132 304.706 206.8 311.697 206.8Z" fill="black"/>
</g>
<defs>
<clipPath id="clip0">
<rect width="500" height="441" fill="white"/>
</clipPath>
</defs>
</svg>
