<svg width="556" height="445" viewBox="0 0 556 445" fill="none" xmlns="http://www.w3.org/2000/svg">
<circle cx="125" cy="130" r="125" fill="#F4F9FA"/>
<circle cx="450.5" cy="167.5" r="105.5" fill="#FCE7F2"/>
<path fill-rule="evenodd" clip-rule="evenodd" d="M139.707 140.623L136.457 148.685L138.247 174.238L139.58 174.446C153.651 176.635 163.213 177.741 168.266 177.763L168.422 177.764C173.51 177.764 179.606 176.623 186.712 174.342L187.036 174.238L187.856 155.104H185.921L182.422 146.873L182.425 146.87C182.464 146.936 182.504 147 182.546 147.062C184.005 149.227 184.85 147.479 188.277 148.244C192.381 149.161 194.203 153.323 197.815 156.433C199.493 157.877 203.013 158.557 204.698 159.55L206.468 160.594C212.013 163.875 218.386 167.862 221.732 173.055C225.655 179.144 228.359 184.921 230.856 191.694C236.238 206.292 239.974 221.189 242.644 236.509C245.349 252.036 246.975 267.755 248.217 283.462C248.792 290.741 249.28 298.026 249.685 305.316L249.784 307.139C249.997 311.106 249.812 314.987 246.218 317.43C243.643 319.179 240.225 319.446 237.204 319.625L237.04 319.635C214.702 320.95 192.364 322.255 170.025 323.562L136.519 325.528C130.943 325.856 125.368 326.181 119.793 326.505L106.184 327.293C99.77 327.66 93.3482 327.976 86.9256 327.939C78.8451 327.892 70.7989 327.293 62.7929 326.212L62.0866 326.116C57.0497 325.418 49.7465 323.652 48.8418 317.591C48.7119 316.721 49.4753 316.177 50.1162 316.302C49.9053 315.315 49.7744 314.327 49.6493 313.469C49.1124 309.801 48.7753 306.11 48.6088 302.408C48.2746 294.998 48.5562 287.555 49.2944 280.178C50.5156 267.973 52.2275 255.79 53.9964 243.65L54.3902 240.952C56.2717 228.09 58.5117 215.249 62.017 202.719C65.255 191.145 70.3064 179.105 77.2571 171.786C84.2078 164.467 94.118 158.108 104.301 154.213C105.183 153.876 122.704 150.027 123.884 150.587L124.096 150.421C127.589 147.653 132.572 142.793 137.703 144.323L137.715 144.304C137.836 144.081 138.31 142.587 138.965 140.623L139.707 140.623Z" fill="#8FA7DF"/>
<path fill-rule="evenodd" clip-rule="evenodd" d="M143.413 129.893C147.656 124.495 152.13 122.778 158.74 123.181C163.222 123.02 167.693 124.187 171.488 126.766C174.966 128.59 178.05 131.1 180.251 134.331C182.134 137.093 180.703 143.919 182.423 146.873C182.406 147.194 182.397 147.487 182.397 147.752C182.397 150.308 184.17 153.16 187.715 156.308L187.856 156.433V175.005C181.896 176.844 174.517 177.763 165.718 177.763C157.051 177.763 148.036 176.303 138.674 173.383L138.248 173.249L136.457 153.064L138.248 147.479L138.248 142.8L138.94 140.708C140.165 137.028 142.04 131.639 143.413 129.893Z" fill="#AE5D29"/>
<path fill-rule="evenodd" clip-rule="evenodd" d="M138.247 173.249C138.247 173.249 153.985 177.847 164.728 177.847C175.471 177.847 187.036 173.249 187.036 173.249L185.16 324.62L154.964 324.991L138.247 173.249Z" fill="#9FD8E5"/>
<path fill-rule="evenodd" clip-rule="evenodd" d="M86.4434 239.343C86.327 239.124 86.5969 238.928 86.776 239.085C90.8435 242.667 92.9731 248.419 93.4196 253.736C93.8927 259.374 93.222 265.212 92.9657 270.847C92.6804 277.125 92.424 283.405 92.0758 289.68C91.7222 296.046 91.3413 302.41 91.0149 308.777L90.2804 323.1V323.1C90.2023 324.627 90.3715 326.504 89.7877 327.929C88.8829 330.137 86.1955 329.795 85.6307 327.949L85.613 327.889L85.5615 327.929C85.0632 326.265 85.4361 324.29 85.5206 322.57L86.2901 306.92V306.92C86.8338 295.859 87.3187 284.797 87.9026 273.738L88.1012 270.052C88.3742 265.089 88.5835 260.139 88.7516 255.178L88.8062 253.524C88.9658 248.543 88.8391 243.84 86.4434 239.343ZM185.047 147.516C187.313 147.3 189.025 148.054 191.082 148.848C191.978 149.194 192.827 149.594 193.687 150.007C194.763 150.525 195.455 151.441 196.118 152.409L196.473 152.931C199.233 156.988 201.09 161.67 203.185 166.088C205.635 171.256 208.11 176.413 210.509 181.605L211.692 184.163C212.284 185.442 212.874 186.722 213.455 188.006L214.459 190.241C215.468 192.507 216.372 194.905 214.935 197.243C213.598 199.417 211.228 201.1 209.351 202.781C207.785 204.183 206.219 205.585 204.653 206.987C207.891 210.241 210.064 214.337 211.342 218.73C213.157 217.972 215.373 217.826 217.25 217.498C219.877 217.038 220.199 221.029 217.72 220.98C215.888 220.944 213.74 221.132 211.861 220.745C212.188 222.189 212.425 223.654 212.575 225.124C213.365 232.825 211.64 240.572 209.841 248.024L209.693 248.635C207.739 256.701 205.887 264.787 204.229 272.92C202.568 281.07 201.074 289.254 199.748 297.465C198.398 305.823 197.443 314.227 196.416 322.629C196.261 323.901 195.463 324.991 194.063 324.991C192.896 324.991 191.563 323.898 191.709 322.629C192.769 313.479 194.271 304.377 195.764 295.29C198.334 279.641 201.57 264.128 205.293 248.716L205.943 246.033C207.618 239.072 209.137 231.9 208.297 224.72C207.613 218.874 205.176 212.64 200.362 209.009L200.215 208.9C199.09 208.072 198.658 206.489 199.765 205.399C200.47 204.706 201.176 204.013 201.882 203.321L206.121 199.168L206.975 198.33C207.688 197.632 208.403 196.938 209.141 196.266C209.587 195.859 210.797 195.083 210.885 194.414C210.943 193.977 210.428 193.21 210.219 192.808L209.262 190.871V190.871C208.719 189.766 208.192 188.653 207.662 187.542C206.563 185.24 205.448 182.945 204.372 180.632L197.912 166.742V166.742C196.09 162.823 194.466 158.686 192.083 155.063L191.614 154.357C191.221 153.763 190.875 153.19 190.627 152.463C190.389 151.763 190.09 150.995 189.649 150.398C188.617 148.997 186.645 148.202 184.994 147.909C184.756 147.866 184.843 147.536 185.047 147.516ZM135.36 143.868C135.503 143.868 135.525 144.073 135.393 144.113C133.402 144.714 131.499 145.683 129.947 147.083C129.204 147.752 128.456 148.512 127.998 149.414C127.822 149.758 127.725 150.123 127.654 150.501L127.631 150.627C127.513 151.31 127.344 151.69 126.998 152.236L126.939 152.329C124.966 155.386 123.583 158.781 122.319 162.181L119.566 169.594V169.594L116.815 177.007C115.929 179.396 115.042 181.785 114.155 184.174C113.665 185.493 113.162 186.806 112.658 188.119C112.44 188.689 112.206 189.253 112.007 189.829C111.98 189.908 111.892 190.382 111.827 190.497L111.849 190.536V190.536C112.404 191.473 113.884 192.256 114.723 192.936L117.611 195.279V195.279C119.671 196.95 121.783 198.574 123.781 200.32C125.035 201.416 124.255 203.379 122.855 203.836C120.51 204.603 118.213 205.52 115.903 206.388C114.97 206.738 113.998 207.043 113.076 207.429L112.515 207.672C112.296 207.771 112.401 207.77 112.41 208.176C112.419 208.602 112.539 209.046 112.608 209.465C113.386 214.185 114.211 218.897 115.081 223.602C118.16 240.237 121.839 256.75 126.035 273.137C128.154 281.412 130.427 289.647 132.592 297.91C134.753 306.15 137.595 314.273 140.309 322.344C141.075 324.62 137.478 325.6 136.731 323.334C133.603 313.841 130.742 304.266 127.787 294.72C122.536 277.757 118.399 260.426 114.739 243.053C112.926 234.443 111.267 225.799 109.764 217.129C109.48 215.487 109.201 213.845 108.928 212.202L108.53 209.784C108.257 208.061 108.101 206.267 109.436 204.903C110.739 203.572 112.976 203.1 114.691 202.476L114.816 202.43C115.907 202.022 117.006 201.628 118.101 201.222C116.488 199.948 114.895 198.646 113.286 197.372C111.989 196.345 110.67 195.339 109.391 194.288C108.336 193.421 107.476 192.308 107.366 190.899C107.254 189.458 107.869 188.122 108.365 186.8L108.413 186.673C108.9 185.354 109.389 184.035 109.89 182.721L112.989 174.587V174.587C114.959 169.418 116.846 164.207 118.918 159.078C119.738 157.048 120.631 155.051 121.687 153.132C122.196 152.207 122.742 151.301 123.335 150.428C123.999 149.449 124.603 148.972 125.632 148.431C127.279 147.567 128.571 146.119 130.225 145.229C131.848 144.354 133.518 143.888 135.36 143.868ZM140.706 134.646C140.768 134.537 140.935 134.586 140.937 134.709C140.98 137.278 140.372 139.903 139.998 142.443C139.622 144.992 139.501 147.683 138.958 150.205C138.946 150.323 138.924 150.438 138.892 150.552L138.866 150.639V150.639C138.636 151.345 138.039 151.944 137.307 152.131C137.537 153.412 137.754 154.694 137.937 155.984C138.25 158.2 138.536 160.42 138.818 162.64L139.155 165.305C139.472 167.816 139.782 170.329 140.087 172.842C140.865 173.168 141.658 173.437 142.471 173.67C144.342 174.208 146.259 174.426 148.19 174.616C152.123 175.003 156.086 175.183 160.033 175.402L160.878 175.45C165.315 175.705 169.776 175.751 174.202 175.294C176.397 175.067 178.574 174.687 180.714 174.148C181.802 173.875 182.859 173.466 183.944 173.198C184.304 173.109 184.626 172.905 184.987 172.686C185.147 172.483 185.371 172.329 185.664 172.27L185.743 172.256V172.256L185.822 172.245L185.849 172.232L185.847 172.241C186.069 172.211 186.28 172.211 186.479 172.238C186.558 170.279 186.644 168.32 186.751 166.361C187.04 161.101 187.837 155.613 186.773 150.399C186.738 150.223 186.975 150.162 187.037 150.326C189.125 155.846 188.891 161.883 188.996 167.693C189.099 173.374 189.037 179.06 189.008 184.743C189.414 184.917 189.776 185.151 190.062 185.481C190.635 186.139 190.8 187.284 190.062 187.919C189.736 188.201 189.374 188.397 188.991 188.532C188.97 193.469 188.935 198.407 188.886 203.344C189.822 204.07 189.909 205.792 188.851 206.507C188.675 222.497 188.385 238.486 188.145 254.473L187.642 288.014V288.014C187.575 292.483 187.464 296.952 187.424 301.42L187.456 301.432V301.432L187.567 301.484C187.754 301.572 188.033 301.715 188.091 301.861C188.106 301.9 188.11 301.926 188.108 301.946C188.416 301.989 188.72 302.134 188.983 302.385C189.633 303.004 189.501 303.938 188.983 304.569L188.845 304.738V304.738C188.522 305.131 187.909 305.282 187.409 305.202C187.414 307.991 187.431 310.78 187.423 313.569C187.42 314.421 187.407 315.273 187.392 316.125L187.357 318.167C187.334 319.333 187.231 320.814 186.041 321.338C184.699 321.929 183.496 321.444 182.952 320.077C182.805 319.706 182.837 319.361 182.89 318.995C182.873 318.444 182.788 317.806 182.798 317.296L182.843 315.166V315.166C182.85 314.838 182.863 314.51 182.872 314.182L182.833 314.186V314.186C178.064 314.418 173.261 314.304 168.484 314.302L166.36 314.305C164.587 314.306 162.811 314.297 161.04 314.229L160.377 314.2C159.052 314.138 157.658 314.118 156.284 313.999C156.459 315.414 156.623 316.83 156.769 318.248C156.907 319.592 155.524 320.734 154.291 320.734C152.826 320.734 151.988 319.579 151.813 318.248C150.985 311.969 150.647 305.632 149.856 299.349C149.148 293.722 148.533 288.082 147.909 282.444L147.701 280.565C145.416 260.048 143.198 239.523 141.077 218.988L140.089 209.388C139.091 199.713 138.088 190.037 137.241 180.347C136.757 174.808 136.311 169.267 135.892 163.722C135.584 159.648 135.391 155.597 135.265 151.531C134.768 151.018 134.519 150.27 134.739 149.497C134.868 149.046 135.017 148.597 135.175 148.15C135.165 147.709 135.155 147.27 135.146 146.829C135.138 146.412 135.56 146.198 135.898 146.267C136.511 144.776 137.187 143.298 137.751 141.822C138.664 139.432 139.416 136.857 140.706 134.646ZM89.7329 160.473C99.274 154.473 110.631 150.156 122.006 150.621C122.265 150.631 122.338 151.027 122.069 151.087C116.002 152.446 109.868 154.102 104.123 156.512C98.3624 158.929 92.8846 162.183 88.0058 166.094C79.0041 173.31 72.0074 182.696 67.4003 193.275C64.7018 199.473 62.8102 206.016 61.1586 212.562C59.4107 219.489 57.9702 226.49 56.7725 233.534C54.4068 247.448 53.0295 261.515 52.2966 275.606C51.551 289.94 51.8583 304.284 51.3265 318.62C51.2346 321.104 47.6964 321.056 47.5166 318.62C46.3117 302.321 46.9792 285.762 48.0936 269.474C49.0955 254.832 50.8452 240.22 53.6628 225.814L53.9082 224.565C56.5421 211.237 59.7191 197.585 66.0868 185.514C71.5232 175.209 79.916 166.647 89.7329 160.473ZM222.226 224.176C222.276 224.033 222.464 224.035 222.514 224.176C223.602 227.231 223.641 230.679 223.93 233.899L223.953 234.146C224.23 237.084 224.439 240.025 224.633 242.968L224.705 244.072C225.484 256.08 226.458 268.074 227.925 280.019C229.388 291.918 231.365 303.735 233.503 315.528C233.741 316.841 233.162 318.178 231.789 318.556C230.58 318.89 229.027 318.142 228.771 316.837C227.444 310.068 226.37 303.29 225.413 296.462C223.727 284.439 222.469 272.361 221.66 260.247C221.254 254.162 221.004 248.08 220.905 241.983C220.859 239.154 220.932 236.318 221.082 233.492L221.118 232.84C221.284 229.952 221.267 226.931 222.226 224.176ZM119.128 300.658C119.255 300.589 119.413 300.731 119.332 300.863C117.485 303.876 114.986 306.474 112.57 309.034C110.045 311.71 107.582 314.467 105.005 317.091C103.144 318.987 100.149 315.929 102.114 314.19C104.876 311.745 107.763 309.422 110.575 307.032L111.804 305.986C114.11 304.032 116.483 302.095 119.128 300.658ZM206.876 299.149C206.739 298.886 207.054 298.672 207.268 298.846C208.758 300.062 210.094 301.513 211.532 302.796C212.958 304.067 214.436 305.253 215.954 306.409C217.479 307.57 219.038 308.685 220.638 309.739C221.965 310.614 223.333 311.315 224.723 312.041C225.367 312.124 225.963 312.441 226.44 313.042C227.194 313.993 227.274 315.785 226.228 316.61L226.04 316.758V316.758C224.819 317.721 223.37 317.838 222.168 316.758C220.826 315.552 219.557 314.225 218.268 312.951L217.881 312.57C216.496 311.219 215.144 309.825 213.871 308.367L212.717 307.051C210.578 304.603 208.351 301.964 206.876 299.149ZM200.012 158.007C199.764 157.842 199.917 157.399 200.223 157.505L200.784 157.699C203.129 158.517 205.543 159.424 207.672 160.683C209.96 162.035 212.072 163.647 214.09 165.376C218.268 168.954 221.822 173.354 224.843 177.941C230.903 187.144 234.651 197.684 237.677 208.23C240.904 219.475 243.388 230.962 245.416 242.481C247.477 254.188 249.067 266 250.112 277.842C250.627 283.676 250.973 289.513 251.147 295.366C251.236 298.378 251.233 301.387 251.208 304.4C251.202 305.174 251.207 305.949 251.216 306.723L251.245 309.046C251.261 310.515 251.436 312.059 251.088 313.494C250.528 315.804 246.722 315.373 246.847 313.012C246.732 312.226 246.728 311.414 246.757 310.601C246.739 310.496 246.72 310.389 246.698 310.28C246.635 309.968 246.688 309.679 246.811 309.431C246.83 309.041 246.848 308.653 246.854 308.272C246.879 306.721 246.878 305.176 246.835 303.625C246.745 300.356 246.615 297.086 246.484 293.819C246.223 287.288 245.859 280.755 245.331 274.241C243.496 251.566 239.62 228.763 233.11 206.948C230.086 196.818 225.918 186.874 219.94 178.12C217.286 174.234 214.292 170.644 210.973 167.313C207.633 163.96 203.952 160.626 200.012 158.007ZM154.965 304.178L155.416 307.452C155.642 309.09 155.865 310.728 156.077 312.367C157.517 312.169 158.99 312.086 160.378 311.963C162.807 311.747 165.253 311.642 167.689 311.541C172.727 311.333 177.791 310.971 182.834 310.996C182.886 310.997 182.935 311 182.984 311.004L183.234 304.543V304.543L179.69 304.538V304.538C176.688 304.533 173.687 304.507 170.684 304.482C167.981 304.458 165.276 304.455 162.572 304.398L161.414 304.37C159.364 304.315 157.1 304.429 154.965 304.178ZM183.531 294.8C183.386 294.817 183.239 294.831 183.082 294.838C182.381 294.868 181.673 294.847 180.971 294.853C179.475 294.866 177.98 294.876 176.484 294.876C173.493 294.876 170.503 294.894 167.512 294.93C164.434 294.967 161.357 295.021 158.278 295.027C156.786 295.03 155.299 294.99 153.808 294.948C154.049 297.075 154.301 299.199 154.58 301.319C156.896 301.005 159.386 301.164 161.649 301.142L161.943 301.138C165.032 301.085 168.124 301.124 171.214 301.128C174.392 301.132 177.571 301.142 180.749 301.168L183.361 301.19V301.19L183.366 301.058V301.058C183.442 298.974 183.492 296.888 183.531 294.8ZM152.66 284.627C152.949 287.137 153.221 289.651 153.498 292.165C153.682 292.136 153.868 292.112 154.058 292.092C155.552 291.935 157.043 291.801 158.542 291.708C161.531 291.522 164.519 291.424 167.513 291.343C170.591 291.26 173.669 291.197 176.748 291.153C178.244 291.132 179.739 291.134 181.235 291.145C181.937 291.149 182.646 291.127 183.346 291.175C183.43 291.18 183.51 291.189 183.589 291.198L183.642 287.424C183.651 286.795 183.66 286.167 183.67 285.538C181.358 285.681 179.007 285.626 176.697 285.627L176.165 285.628C173.262 285.642 170.357 285.602 167.455 285.541C164.46 285.479 161.472 285.38 158.483 285.188C157.272 285.11 156.07 285.007 154.865 284.874L154.263 284.804C153.739 284.742 153.199 284.692 152.66 284.627ZM183.908 273.978C178.34 274.421 172.801 274.606 167.218 274.662L166.38 274.669C161.447 274.706 156.472 274.911 151.527 274.779C151.822 277.352 152.117 279.924 152.414 282.496C153.122 282.463 153.834 282.463 154.526 282.438C155.934 282.387 157.338 282.374 158.747 282.371C161.649 282.364 164.552 282.39 167.455 282.384C170.446 282.377 173.437 282.327 176.428 282.27C178.853 282.225 181.304 282.041 183.735 282.048L183.908 273.978V273.978ZM184.144 263.003C183.499 263.218 182.737 263.232 181.902 263.27L179.746 263.378C178.747 263.427 177.748 263.474 176.748 263.51C173.417 263.633 170.086 263.747 166.754 263.853C163.34 263.962 159.909 264.025 156.494 263.917C154.822 263.864 153.163 263.776 151.495 263.636C151.083 263.602 150.663 263.579 150.242 263.549C150.63 266.957 151.02 270.365 151.411 273.773C156.333 273.167 161.292 272.789 166.208 272.162L170.653 271.593C175.096 271.024 179.535 270.466 183.994 269.995L184.144 263.003V263.003ZM184.382 251.908C183.435 252.142 182.356 252.13 181.447 252.188L181.278 252.2C179.556 252.331 177.829 252.396 176.102 252.439C172.718 252.523 169.332 252.565 165.946 252.585L163.911 252.598C161.197 252.614 158.485 252.621 155.77 252.557C154.029 252.517 152.292 252.431 150.552 252.344C150.031 252.317 149.498 252.3 148.964 252.273C149.327 255.5 149.695 258.726 150.061 261.952C150.633 261.861 151.207 261.792 151.755 261.699C153.157 261.461 154.556 261.271 155.969 261.102C159.028 260.734 162.103 260.469 165.176 260.246C168.331 260.016 171.489 259.822 174.645 259.6L176.88 259.442C177.625 259.39 178.37 259.34 179.115 259.294C180.388 259.216 181.867 259.304 183.13 259.026C183.472 258.883 183.851 258.851 184.232 258.932L184.382 251.908V251.908ZM184.668 238.92C184.341 239.337 183.851 239.556 183.268 239.632C180.229 240.027 177.113 240.091 174.048 240.277L173.508 240.312C170.344 240.521 167.178 240.685 164.012 240.854C160.76 241.027 157.507 241.168 154.252 241.282C152.87 241.33 151.481 241.336 150.097 241.318L149.504 241.309C148.936 241.3 148.341 241.301 147.744 241.281C148.074 244.299 148.407 247.316 148.746 250.332C149.354 250.265 149.962 250.215 150.552 250.152C152.291 249.968 154.027 249.785 155.77 249.648C159.073 249.386 162.377 249.229 165.686 249.065C169.071 248.897 172.457 248.785 175.843 248.627C177.484 248.549 179.125 248.454 180.761 248.302C181.908 248.197 183.271 247.805 184.467 247.949C184.533 244.939 184.601 241.929 184.668 238.92ZM184.935 227.285C184.883 227.366 184.822 227.444 184.749 227.516C183.411 228.842 181.762 228.74 179.99 228.879L179.881 228.888C178.143 229.035 176.405 229.174 174.666 229.3C171.189 229.552 167.705 229.728 164.223 229.885C160.66 230.046 157.074 230.156 153.507 230.083C151.223 230.036 148.83 230.045 146.5 229.821C146.858 233.144 147.218 236.467 147.581 239.789C148.236 239.665 148.895 239.57 149.52 239.472C151.093 239.223 152.669 238.974 154.252 238.791C157.415 238.425 160.579 238.084 163.748 237.775C166.458 237.512 169.168 237.244 171.88 237.003L173.508 236.862C176.744 236.589 180.021 236.138 183.268 236.072C183.803 236.061 184.408 236.353 184.714 236.814C184.786 233.638 184.86 230.461 184.935 227.285ZM185.159 217.867C184.333 217.967 183.443 217.91 182.68 217.935C180.752 217.998 178.823 218.057 176.895 218.114L165.324 218.457V218.457C161.384 218.573 157.431 218.661 153.49 218.605C151.756 218.58 150.015 218.577 148.282 218.483L147.704 218.448C146.991 218.4 146.116 218.393 145.261 218.306L146.27 227.685V227.685C148.589 227.349 150.978 227.223 153.277 227.026L153.768 226.982C157.159 226.672 160.565 226.468 163.962 226.237C167.446 226 170.925 225.713 174.405 225.419C176.144 225.272 177.883 225.126 179.621 224.965L179.835 224.944C181.477 224.772 183.02 224.406 184.474 225.377C184.687 225.519 184.853 225.709 184.967 225.921C185.031 223.237 185.093 220.551 185.159 217.867ZM185.43 206.921C178.383 207.206 171.335 207.422 164.282 207.517C160.313 207.57 156.348 207.532 152.379 207.449C150.658 207.413 148.923 207.33 147.203 207.198L146.559 207.146C145.742 207.077 144.882 207.027 144.027 206.944C144.381 210.169 144.731 213.394 145.079 216.62C145.921 216.463 146.8 216.39 147.537 216.296L147.705 216.273C149.537 216.021 151.386 215.873 153.227 215.711C156.812 215.394 160.415 215.189 164.009 215.016C167.69 214.838 171.373 214.688 175.054 214.523L178.736 214.358C179.35 214.331 179.963 214.304 180.577 214.278C181.454 214.241 182.33 214.205 183.207 214.169C183.639 214.151 184.089 214.092 184.522 214.114L184.645 214.098C184.702 214.091 184.752 214.085 184.798 214.08C184.916 213.99 185.042 213.915 185.177 213.859L185.258 213.827L185.43 206.921ZM142.871 196.548C143.199 199.451 143.522 202.355 143.841 205.259C144.847 205.144 145.864 205.08 146.823 204.994C148.758 204.819 150.703 204.667 152.644 204.577L156.523 204.397C159.109 204.277 161.694 204.161 164.282 204.066C171.364 203.807 178.446 203.509 185.524 203.147C185.574 201.177 185.626 199.208 185.678 197.238C185.339 197.603 184.848 197.844 184.203 197.842C176.772 197.822 169.335 197.865 161.906 197.743C158.186 197.681 154.472 197.591 150.757 197.399C148.939 197.306 147.111 197.115 145.307 196.864C144.538 196.757 143.696 196.681 142.871 196.548ZM141.683 186.204C142.032 189.178 142.375 192.152 142.712 195.127C143.634 194.962 144.588 194.874 145.449 194.757C147.299 194.504 149.16 194.303 151.023 194.198C154.648 193.992 158.276 193.888 161.906 193.811C169.335 193.653 176.772 193.654 184.203 193.595C184.901 193.589 185.42 193.866 185.76 194.28C185.811 192.423 185.866 190.566 185.922 188.709C185.204 188.633 184.493 188.525 183.834 188.479C181.81 188.337 179.786 188.208 177.76 188.091C173.533 187.848 169.303 187.64 165.073 187.456C160.842 187.271 156.61 187.09 152.378 186.933L150.528 186.865C147.585 186.756 144.592 186.617 141.683 186.204ZM140.352 175.005C140.715 178.017 141.073 181.029 141.431 184.042L141.539 184.974V184.974C145.079 184.284 148.809 184.081 152.378 183.929C156.611 183.748 160.836 183.655 165.073 183.668C169.305 183.681 173.531 183.782 177.76 183.957C179.873 184.045 181.986 184.146 184.098 184.261C184.678 184.292 185.359 184.276 186.06 184.286C186.075 183.812 186.088 183.339 186.104 182.866C186.168 180.948 186.231 179.031 186.297 177.114C184.869 177.85 183.011 178.147 181.576 178.46L181.412 178.497C179.042 179.031 176.622 179.377 174.203 179.589C169.452 180.005 164.651 179.849 159.905 179.446L159.073 179.375C154.905 179.012 150.584 178.553 146.543 177.518C144.618 177.025 142.629 176.335 140.904 175.335C140.725 175.231 140.539 175.121 140.352 175.005ZM180.485 139.215C180.526 139.052 180.769 139.015 180.849 139.167C181.411 140.237 181.619 141.521 182.009 142.668C182.429 143.9 182.82 145.142 183.283 146.359C184.249 148.903 185.39 151.348 186.749 153.704C188.096 156.038 184.325 157.703 183.335 155.149C182.312 152.513 181.471 149.787 180.962 147.001C180.714 145.642 180.493 144.264 180.421 142.883C180.359 141.697 180.193 140.372 180.485 139.215Z" fill="black"/>
<path fill-rule="evenodd" clip-rule="evenodd" d="M187.841 51.0835C170.408 36.8353 142.47 32.209 123.809 46.5838C109.308 60.0742 103.308 98.4096 105.874 117.673C106.587 130.029 115.975 144.033 129.755 140.125C132.095 139.893 134.367 138.991 136.729 138.803C139.553 138.475 142.4 138.47 145.219 138.87C151.362 139.744 156.808 143.024 162.771 144.557C173.834 147.402 186.179 145.489 195.702 139.08C227.173 118.274 212.918 71.2207 187.841 51.0835V51.0835Z" fill="#AE5D29"/>
<path fill-rule="evenodd" clip-rule="evenodd" d="M185.519 144.9C185.843 144.788 186.166 144.671 186.487 144.551C186.508 144.625 186.542 144.697 186.582 144.767C186.627 144.878 186.672 144.987 186.723 145.097C186.32 145.1 185.917 145.027 185.519 144.9M184.873 6.82617C184.73 6.50392 184.566 6.19473 184.38 5.89594C184.831 6.04281 185.282 6.24538 185.69 6.50659C185.414 6.59988 185.143 6.70649 184.873 6.82617M116.011 48.9825C115.992 48.9793 115.974 48.9766 115.956 48.9734C116.192 48.3404 116.613 47.7428 117.078 47.3113C117.162 47.2337 117.252 47.162 117.34 47.0879C116.846 47.6794 116.398 48.3103 116.011 48.9825M242.01 115.178C241.777 112.955 241.48 110.74 241.096 108.538C240.728 106.43 240.417 104.175 239.349 102.304C238.289 100.441 237.226 98.6308 235.965 96.9918C236.144 96.1549 236.383 95.3686 236.59 94.7342C237.783 91.0826 238.957 86.4448 236.478 83.0517C235.903 82.2655 235.201 81.6631 234.398 81.1193C234.056 80.8874 233.489 80.6769 233.226 80.357C233.041 80.1305 233.104 80.2531 233.096 80.1411C233.051 79.5387 234.456 78.2673 234.785 77.7902C235.4 76.9077 235.858 75.9138 236.208 74.8983C237.592 70.8788 236.651 66.4516 235.819 62.4239C235.379 60.2892 234.894 58.1489 234.734 55.9686C234.586 53.9215 234.864 51.9225 235.029 49.8861C235.188 47.8761 235.145 45.8027 234.289 43.942C233.87 43.0358 233.237 42.2362 232.465 41.6124C231.713 41.0023 230.774 40.6478 230.04 40.0401C229.308 39.4348 229.518 38.6168 229.709 37.7799C229.971 36.6444 230.302 35.5169 230.334 34.3442C230.392 32.2998 229.563 30.3085 228.267 28.7628C226.931 27.1662 225.022 26.0865 222.96 25.8439C222.016 25.732 221.089 25.9215 220.15 25.8548C219.222 25.7909 219.021 25.3244 218.846 24.4715C218.443 22.5178 218.608 20.588 217.651 18.7649C216.803 17.1443 215.294 16.0459 213.627 15.3985C210.571 14.2097 207.016 14.4549 203.793 15.1556C201.89 9.52658 195.95 5.835 190.105 5.78968C189.193 4.23309 187.647 3.07097 185.885 2.38836C182.969 1.25557 179.881 1.91685 176.843 1.91685H176.83C176.525 1.89793 176.22 1.8902 175.916 1.89286C175.629 1.87661 175.343 1.85262 175.057 1.8209C171.6 1.41016 168.181 -0.0131658 164.756 1.38111C163.229 2.00215 162.015 2.95903 161.247 4.17978C160.088 4.4967 158.946 4.85946 157.825 5.28059C152.966 5.40827 148.152 8.02836 145.695 12.2746C142.236 11.8801 138.483 12.5491 136.195 15.3905C135.599 16.1299 135.137 16.9985 134.832 17.9207C132.499 18.6793 130.341 20.0309 128.928 22.0668C127.639 23.9246 127.391 26.3266 128.263 28.3209C126.181 29.8378 124.554 32.0093 123.77 34.5734C123.293 36.1313 123.223 37.7409 123.529 39.2744C121.397 39.7499 119.358 40.6313 117.551 41.9541C115.658 43.3399 113.293 45.5455 113.169 48.084C113.159 48.2704 113.166 48.4567 113.181 48.6424C109.013 48.3479 104.763 49.058 101.945 52.4183C99.83 54.9395 98.9105 58.1862 99.4751 61.1421C94.5156 62.155 89.8263 64.7617 86.5553 68.6159C84.1779 71.4173 82.0653 74.9782 82.1923 78.7922C82.232 79.9412 82.5 81.098 82.9639 82.1668V82.1692C82.7651 82.5453 82.5607 82.9638 82.3646 83.4089C79.2924 85.5703 77.0605 88.9583 75.8041 92.6925C74.7892 95.7175 74.1503 99.6466 75.2342 102.725C75.3988 103.194 75.6082 103.637 75.8521 104.047C75.6477 104.266 75.4545 104.484 75.2663 104.705C73.1958 107.139 71.0991 110.204 71.2425 113.554C71.3008 114.903 71.7989 116.26 72.6129 117.374C69.7499 120.293 67.4441 123.976 67.6718 128.089C67.8679 131.669 69.8218 135.304 72.883 137.024C72.3717 139.782 73.0556 142.693 75.1918 144.846C76.2576 145.923 77.5138 146.632 78.8447 147.011C79.1416 150.26 82.0094 152.875 85.055 153.626C85.6225 153.768 86.1898 153.853 86.7541 153.893C89.4949 155.244 92.7632 155.089 95.5597 153.85C96.3841 154.903 97.4576 155.761 98.7087 156.377C99.215 156.628 99.7507 156.835 100.31 157.003C104.259 158.179 108.31 156.585 111.763 154.724C111.875 154.666 112.079 154.591 112.259 154.509C112.736 155.044 113.606 155.575 114.059 155.836C115.597 156.724 117.476 157.136 119.241 157.019C121.311 156.881 123.138 156.193 124.829 155.215C125.075 155.258 125.324 155.282 125.574 155.295C127.164 155.38 128.582 154.874 129.857 154.074C130.7 154.186 131.564 154.175 132.439 154.021C134.366 154.514 136.243 153.73 137.751 152.486C138.419 151.934 138.983 151.286 139.588 150.668C140.216 150.025 140.693 149.876 141.427 149.444C143.164 148.423 143.373 145.835 142.62 143.964C142.763 143.636 142.846 143.271 142.846 142.866C142.84 139.332 141.221 136.091 139.233 133.263C138.345 132.002 137.38 130.768 136.322 129.648C135.471 128.75 134.276 127.292 133.017 126.927C132.94 126.871 132.86 126.815 132.781 126.762C133.025 125.903 133.168 125.029 133.107 124.136C133.043 123.219 132.749 122.35 132.277 121.609C133.86 118.526 134.528 115.143 134.21 111.614C135.498 109.777 136.473 107.749 136.977 105.526C137.287 104.151 137.465 102.704 137.441 101.294C137.43 100.617 137.184 99.7609 137.179 99.0602C137.216 99.2814 137.502 98.4551 137.613 98.2496C138.891 95.8643 140.531 94.0039 140.805 91.1919C140.963 89.5471 140.576 87.7295 139.596 86.3808C140.224 83.8913 140.216 81.2177 139.227 78.8431C138.962 78.2087 138.658 77.5877 138.308 76.9986C138.469 76.5028 138.618 76.0017 138.808 75.551C138.883 75.3724 138.957 75.1915 139.031 75.0102C139.749 74.3729 140.418 73.6775 140.98 72.9949C142.225 71.4839 143.177 69.7514 143.296 67.7547C143.355 66.7552 143.121 65.7983 142.832 64.8497C142.705 64.4206 142.628 63.9435 142.477 63.525C142.392 63.2928 142.188 63.0559 142.117 62.8373C142.101 62.7893 142.087 62.7494 142.077 62.7174C142.087 62.6854 142.096 62.6188 142.096 62.4932C142.098 61.5363 142.223 60.6008 142.228 59.6788C143.1 60.5637 144.15 61.2245 145.343 61.6112C147.747 62.3869 150.254 62.035 152.383 60.8383C154.673 62.4162 157.247 63.8446 159.945 64.4179C161.549 64.7588 163.155 64.6178 164.764 64.8284C166.362 65.0389 167.908 65.7399 169.413 66.2864C172.764 67.5044 176.106 68.7543 179.467 69.9406C182.182 70.8975 185.119 71.6571 187.96 71.1187C188.758 72.3552 189.795 73.4003 191.123 74.168C192.074 74.7144 193.118 75.0846 194.197 75.2688C195.152 75.4314 196.27 75.3674 197.044 76.0257C197.8 76.6654 198.271 77.6194 198.95 78.3393C199.706 79.1443 200.638 79.8426 201.617 80.3437C202.401 80.7462 203.202 81.0364 204.015 81.2259C203.944 83.0464 203.875 84.8642 203.854 86.6874C203.814 90.6481 203.83 94.6087 203.777 98.5697C203.724 102.517 203.6 106.465 203.393 110.407C203.196 114.106 202.921 117.819 202.043 121.428C199.133 133.404 188.231 141.978 176.027 142.416C172.404 142.546 168.817 142.034 165.352 140.963C161.764 139.852 158.559 137.564 154.88 136.861C153.917 136.679 153.011 137.653 153.562 138.588C154.511 140.195 155.664 141.176 157.241 142.143C158.893 143.154 160.732 143.903 162.548 144.559C165.888 145.763 169.422 146.462 172.965 146.656C175.669 146.805 178.383 146.619 181.031 146.107C181.217 146.68 181.546 147.237 181.795 147.768C181.832 147.845 181.957 147.792 181.933 147.712C181.893 147.579 181.867 147.461 181.856 147.365C182.746 148.533 184.122 149.34 185.535 149.732C186.531 150.009 187.589 150.094 188.615 149.977C188.947 149.94 189.262 149.884 189.575 149.815C190.619 150.734 191.955 151.347 193.296 151.654C193.066 153.061 193.757 154.597 195.361 154.996C196.034 155.164 196.681 155.167 197.328 155.106C197.85 155.351 198.412 155.543 199.009 155.673C199.785 155.844 200.713 155.625 201.298 155.06C201.619 155.287 201.919 155.444 202.216 155.804C203.438 157.286 206.072 156.105 206.189 154.391C206.576 154.391 206.966 154.397 207.356 154.41C207.448 154.453 207.541 154.495 207.636 154.541C209.341 155.337 211.106 156.033 212.991 155.407C213.338 155.292 213.656 155.146 213.945 154.975C215.273 155.095 216.582 155.098 217.929 154.66C218.724 154.402 219.472 153.991 220.095 153.453C222.173 154.066 224.365 154.343 226.433 153.583C227.98 153.016 229.226 152.12 230.104 150.939C231.445 150.988 232.807 150.662 234.035 150.02C236.134 148.927 237.605 146.851 238.631 144.769C240.89 140.177 242.225 135.243 242.75 130.155C243.267 125.144 242.53 120.159 242.01 115.178" fill="black"/>
<path fill-rule="evenodd" clip-rule="evenodd" d="M177.987 125.77C176.201 125.039 174.608 123.82 173.443 122.263C173.038 121.721 172.933 121.149 173.018 120.626C173.114 120.038 173.46 119.505 173.933 119.148C174.408 118.789 175.001 118.613 175.574 118.703C176.073 118.781 176.569 119.055 176.962 119.623L177.044 119.736C177.736 120.676 178.639 121.448 179.667 121.945C180.658 122.424 181.766 122.648 182.913 122.518C185.098 122.27 186.603 121.085 188.204 119.475C188.402 119.272 188.6 119.062 188.8 118.849C188.926 118.656 189.101 118.532 189.295 118.467C189.51 118.394 189.754 118.398 189.977 118.477C190.193 118.552 190.385 118.695 190.514 118.885C190.637 119.066 190.706 119.289 190.684 119.546C190.537 121.214 189.668 122.703 188.433 123.872C187.062 125.171 185.244 126.069 183.533 126.384C181.648 126.731 179.727 126.483 177.987 125.77V125.77ZM184.423 100.033C186.429 101.257 189.485 104.11 187.327 107.143C184.787 109.817 181.13 106.751 179.328 105.364C177.657 104.289 175.78 107.053 177.33 108.308C190.352 117.983 195.637 100.353 185.437 98.595C184.315 98.4012 183.897 99.655 184.423 100.033ZM161.087 88.7799C161.308 86.0195 165.498 85.3927 165.915 88.1242C166.288 90.5711 165.849 92.8188 164.75 95.0218C163.701 97.1264 161.063 96.1445 160.864 94.228C160.596 91.6592 160.949 90.497 161.087 88.7799ZM192.98 87.5579C193.564 86.7903 194.407 86.2662 195.418 86.5624C198.575 87.4881 197.644 91.9854 196.536 94.1745C195.933 95.3633 193.986 95.6647 193.106 94.618C191.671 92.9111 190.984 89.5023 192.808 87.821C192.857 87.7341 192.912 87.6464 192.98 87.5579ZM164.706 76.7014L165.205 76.6138C166.747 76.3461 168.666 76.0889 169.757 77.3334C170.336 77.9933 170.535 79.22 169.757 79.8517C168.388 80.9631 166.875 80.5324 165.235 80.6265C163.884 80.7043 162.585 80.9288 161.283 81.3022C158.427 82.1213 156.1 83.6166 153.661 85.2584C153.34 85.4738 153.014 85.0631 153.166 84.7627C154.575 81.9952 157.303 79.7219 160.037 78.3361C161.496 77.5965 163.092 76.9829 164.706 76.7014ZM190.102 75.4617L190.483 75.5401C194.637 76.4113 200.034 78.1516 202.001 82.2456C202.076 82.8244 201.997 82.9485 201.932 83.0296L201.911 83.0565C201.858 83.1258 201.815 83.2212 201.565 83.3C201.496 83.2834 201.426 83.2658 201.355 83.2472C200.453 83.0101 199.74 82.6835 199.049 82.3445L198.301 81.9744C197.432 81.5469 196.555 81.1351 195.627 80.831C193.644 80.1823 191.606 79.7253 189.535 79.4812C189.086 79.4284 188.654 79.2764 188.313 79.016C187.99 78.7687 187.743 78.4265 187.63 77.9715C187.484 77.3827 187.526 76.9369 187.841 76.4057C188.077 76.0068 188.416 75.7303 188.805 75.5715C189.202 75.4097 189.653 75.3715 190.102 75.4617Z" fill="black"/>
<path fill-rule="evenodd" clip-rule="evenodd" d="M496.322 323.756C461.619 329.032 426.287 329.297 391.295 327.381C377.447 326.344 363.556 326.157 349.719 327.483C341.542 328.092 305.693 330.835 302.764 323.505C304.607 284.47 308.341 245.103 319.795 207.561C324.505 194.231 328.551 183.167 337.745 172.136C340.642 169.124 346.891 162.808 350.471 160.748C353.573 158.963 354.87 159.6 356.651 156.586C358.421 153.256 359.726 147.695 362.239 145.345C364.798 142.953 368.59 143.809 373.291 144.58C372.427 132.899 377.814 129.924 385.234 127.702C398.278 122.719 411.16 125.223 414.443 141.117C420.53 141.117 423.949 143.739 427.646 146.259C429.157 147.289 428.106 149.913 429.911 150.722C433.25 151.912 439.151 151.621 442.367 153.086C456.988 159.746 470.01 169.405 478.563 183.511C497.736 213.628 510.906 277.069 508.627 312.765C509.626 314.332 508.245 316.58 507.894 318.265C507.451 319.732 506.016 320.707 504.519 320.54C502.43 322.789 499.198 323.29 496.322 323.756Z" fill="#D08B5B"/>
<path fill-rule="evenodd" clip-rule="evenodd" d="M424.124 143.504C421.986 141.271 418.633 139.938 415.458 140.013L415.309 140.017L414.231 140.066L414.952 143.603L414.988 143.77L415.135 144.384L415.33 145.188L415.4 145.484L415.473 145.811C415.485 145.864 415.496 145.917 415.507 145.969L415.539 146.124L415.847 147.627L415.789 147.76L415.806 148.102C415.853 149.336 415.588 150.015 415.002 150.232L414.955 150.248L414.622 150.356L414.349 150.948C413.722 152.301 413.137 153.483 412.537 154.597C410.785 157.844 408.696 161.09 406.286 164.353C403.997 167.453 401.613 170.411 399.134 173.221C398.019 174.484 396.841 175.753 395.588 177.044L394.509 178.15L394.166 178.497L393.935 178.728L393.647 179.01L393.232 179.406L392.932 179.702L392.834 179.795C392.712 179.909 392.617 179.986 392.531 180.041L392.5 180.061L392.405 180.117L387.403 185.383L385.637 186.355L384.798 186.82L384.628 186.482L384.593 186.373L382.734 182.286L381.599 179.784C379.269 174.634 377.456 170.538 375.799 166.638L375.592 166.151L374.981 164.7L374.658 163.925C373.176 160.371 372.081 157.628 371.102 154.964L370.963 154.583L370.757 154.014L370.45 153.155L370.394 153.009C370.128 152.327 370.782 149.849 371.426 148.491L371.462 148.416L371.629 148.079L371.811 147.725C372.236 146.893 372.545 145.97 372.804 144.853C372.846 144.672 372.885 144.49 372.922 144.306L372.976 144.03L373.011 143.848L373.058 143.594L373.127 143.23L371.686 142.989L370.896 142.86L370.551 142.805C370.105 142.736 369.707 142.68 369.333 142.632L369.194 142.615L368.943 142.585L368.934 142.635L368.42 142.685L368.039 142.725C366.159 142.924 364.709 143.143 363.679 143.386L363.578 143.411L363.394 143.457L363.31 143.479C362.373 143.732 361.652 144.277 361.081 145.081C360.689 145.632 360.435 146.161 360.032 147.162L359.888 147.523L359.409 148.708C359.353 148.853 359.267 149.083 359.149 149.4L358.743 150.507L356.707 156.137L354.622 157.235C353.653 157.742 352.945 158.108 352.595 158.281L352.471 158.341L352.382 158.382L351.664 158.667L351.741 158.891L351.654 158.941C343.074 163.882 336.457 171.482 331.305 181.573L331.149 181.879L330.99 182.197C326.884 190.416 323.943 199.588 321.07 211.834L320.893 212.595L320.753 213.201L320.004 216.469C317.191 228.807 315.257 238.007 313.657 247.035L313.553 247.624L313.287 249.157C311.277 260.842 309.595 272.422 308.249 283.887L308.025 285.817C307.464 290.744 306.956 295.836 306.406 301.952L306.332 302.773L306.089 305.52C305.831 308.48 305.596 311.434 305.382 314.382L305.277 315.855L305.062 319.058L304.935 320.884L304.92 321.131L304.868 322.082L304.854 322.306C304.835 322.592 304.813 322.833 304.785 323.056L304.763 323.22L304.739 323.38C304.668 323.816 304.528 324.207 304.295 324.642L304.235 324.752L303.837 325.466L304.559 325.847C308.328 327.835 315.749 328.709 325.929 328.755L326.238 328.756H326.874C331.821 328.753 337.063 328.562 342.533 328.236L343.771 328.16L344.803 328.094C345.248 328.065 345.681 328.036 346.13 328.005L346.818 327.956L349.695 327.746C362.633 326.505 376.201 326.526 391.151 327.646C430.129 329.78 463.772 328.88 495.393 324.155L496.35 324.011L497.056 323.896L497.477 323.826C500.831 323.252 502.937 322.518 504.58 320.976L504.666 320.894L504.738 320.824L504.769 320.824C506.424 320.817 507.938 319.734 508.501 318.136L508.53 318.05L508.567 317.931L508.592 317.812C508.619 317.697 508.651 317.573 508.691 317.438L508.722 317.334L508.983 316.477L508.103 316.316C508.028 316.302 507.949 316.249 507.872 316.138L507.799 316.033L507.672 315.857L507.365 315.437C507.039 314.978 506.878 314.69 506.799 314.402C506.728 314.146 506.702 313.818 506.71 313.361L506.715 313.139L506.75 312.33C506.752 312.266 506.754 312.209 506.755 312.154L506.756 312.073L506.757 310.935L506.754 309.685C506.752 309.139 506.749 308.607 506.744 308.084L506.737 307.307L506.73 306.681C506.688 303.217 506.586 299.756 506.426 296.301C506.111 289.555 505.572 282.818 504.81 276.107C503.235 262.253 500.824 248.816 497.543 235.83L497.213 234.534C493.666 220.656 490.246 209.958 485.899 200.064C480.37 187.481 473.628 177.125 465.14 168.846C460.474 164.294 455.305 160.451 449.813 157.505C447.287 156.149 444.603 154.947 441.724 153.865L441.311 153.711L440.645 153.467L440.134 153.279L438.488 152.663C438.142 152.533 437.766 152.388 437.32 152.213L437.044 152.104L434.096 150.927L433.607 150.734L433.063 150.522L432.663 150.368C432.008 150.118 431.416 149.9 430.866 149.708L430.541 149.596L430.246 149.497L428.988 149.061L429.012 150.207C429.029 150.968 428.833 151.544 428.397 151.957L428.383 151.971L428.368 151.983L428.354 151.991L428.278 151.989L427.981 151.988C427.95 151.971 427.921 151.951 427.894 151.928C427.471 151.569 427.274 151.086 427.083 149.98L427.033 149.672L426.945 149.096L426.91 148.878C426.782 148.11 426.671 147.686 426.456 147.201C426.144 146.5 425.733 145.818 425.248 145.19L425.135 145.046L424.682 144.502L424.613 144.416C424.454 144.212 424.373 144.069 424.339 143.937L424.331 143.901L424.285 143.672L424.124 143.504Z" fill="#FFCF77"/>
<path fill-rule="evenodd" clip-rule="evenodd" d="M352.681 159.865C352.894 159.746 352.706 159.441 352.492 159.542C342.2 164.375 334.305 172.854 328.75 182.651C322.997 192.795 319.719 204.313 316.892 215.57L316.79 215.976C313.776 228.019 311.213 240.186 308.906 252.382C306.569 264.733 304.694 277.161 303.185 289.64C302.438 295.81 301.773 301.991 301.254 308.185C300.995 311.28 300.759 314.377 300.547 317.476C300.463 318.715 300.383 319.954 300.315 321.195L300.266 322.125C300.224 322.969 300.123 323.815 300.332 324.648C300.511 325.365 300.891 326.015 301.225 326.674C301.885 327.976 303.696 327.762 304.407 326.674L304.614 326.357C305.086 325.627 305.478 324.949 305.626 324.04C305.769 323.16 305.774 322.238 305.839 321.35C305.957 319.715 306.058 318.078 306.172 316.443C306.413 313 306.684 309.559 306.984 306.121C307.576 299.334 308.212 292.553 308.993 285.784C310.38 273.755 312.12 261.758 314.172 249.825C316.177 238.167 318.712 226.628 321.356 215.103L321.63 213.911C326.26 193.79 333.395 170.618 352.681 159.865ZM462.303 238.655C462.227 238.454 461.901 238.408 461.846 238.655C461.153 241.78 461.084 244.998 460.978 248.197C460.874 251.353 460.878 254.523 460.924 257.68C461.094 269.284 461.412 280.879 461.687 292.482C461.825 298.285 461.954 304.09 462.053 309.894C462.09 312.071 462.122 314.248 462.148 316.426L462.18 319.297C462.196 320.566 462.229 321.82 462.384 323.089C462.486 323.923 462.703 324.718 463.163 325.433C463.49 325.941 463.955 326.198 464.409 326.543L464.493 326.609C465.072 327.067 465.681 327.07 466.254 326.609L466.421 326.477C466.968 326.049 467.441 325.714 467.79 325.037C468.277 324.094 468.354 323.071 468.437 322.033C468.562 320.459 468.479 318.862 468.463 317.283C468.431 314.116 468.387 310.95 468.331 307.783C468.128 296.172 467.725 284.557 466.991 272.966C466.645 267.507 466.176 262.029 465.548 256.591L465.428 255.572C465.237 253.972 465.063 252.344 464.867 250.71C467.793 248.65 470.366 246.15 472.559 243.314C472.721 243.105 472.455 242.813 472.26 243.015C470.019 245.338 467.449 247.19 464.603 248.646C464.137 245.226 463.496 241.825 462.303 238.655ZM413.413 135.146C413.373 135.115 413.31 135.101 413.272 135.146C412.643 135.88 412.77 137.002 412.75 137.933L412.748 138.019C412.703 139.379 412.694 140.735 412.699 142.096L412.713 146.428V146.428C412.714 147.023 412.763 147.643 412.732 148.242L412.716 148.474V148.474C412.386 148.813 412.232 149.303 412.344 149.794C412.365 150.425 412.694 150.951 413.175 151.282L412.145 152.744V152.744L411.114 154.206C408.989 157.223 406.841 160.213 404.602 163.146C402.319 166.137 399.884 169.016 397.336 171.783C396.091 173.135 394.824 174.469 393.529 175.772C393.002 176.302 392.462 176.819 391.929 177.341L391.398 177.867C391.084 178.181 390.689 178.491 390.481 178.889C390.359 179.124 390.331 179.703 390.287 179.798C389.894 180.663 390.564 182.042 391.679 181.611L391.628 181.577C391.425 181.436 391.556 181.434 392.019 181.571C392.311 181.57 392.585 181.503 392.841 181.37L392.917 181.328C393.278 181.144 393.599 180.79 393.892 180.506L393.965 180.436C394.634 179.808 395.273 179.142 395.914 178.486C397.254 177.116 398.563 175.717 399.831 174.281C402.36 171.415 404.757 168.433 407.027 165.359C409.34 162.227 411.489 158.935 413.338 155.508C414.039 154.207 414.683 152.881 415.299 151.54C416.499 151.154 416.778 149.877 416.694 148.437C417.137 147.405 417.536 146.352 417.772 145.275C417.804 145.128 417.615 144.989 417.501 145.118C417.117 145.554 416.762 146.019 416.42 146.496C416.214 145.487 415.953 144.558 415.831 143.966L415.299 141.353V141.353C418.297 141.196 421.582 142.429 423.649 144.588C423.76 145.15 424.192 145.552 424.613 146.078C425.095 146.678 425.515 147.352 425.828 148.057C426.522 149.62 426.13 151.922 427.478 153.068C427.619 153.188 427.776 153.271 427.938 153.322C427.298 156.461 427.589 159.921 427.603 163.106L427.603 163.387C427.6 166.951 427.719 170.519 427.856 174.081L427.996 177.606C428.178 182.308 428.296 187.012 427.839 191.687C425.755 189.84 423.6 188.077 421.372 186.397C419.906 185.292 418.411 184.227 416.889 183.202L415.652 182.374C414.17 181.38 412.652 180.356 411.03 179.644C408.907 178.712 406.889 179.032 404.84 179.988C402.799 180.939 400.82 182.045 398.818 183.076C396.782 184.125 394.742 185.165 392.704 186.207C391.353 186.898 389.374 187.522 388.384 188.793C388.32 188.512 388.247 188.231 388.161 187.952C388.259 187.526 388.221 187.065 387.982 186.626C384.654 180.504 381.574 174.236 378.517 167.976C376.969 164.808 375.497 161.602 373.946 158.436L372.439 155.352C372.187 154.839 371.934 154.325 371.68 153.813C371.3 153.045 370.904 152.285 370.519 151.52C370.357 151.196 370.153 150.875 369.995 150.549L369.92 150.385C369.916 150.377 369.551 149.227 369.833 149.336L369.857 149.348C370.001 149.43 370.117 149.248 370.023 149.133C369.624 148.639 369.069 149.076 368.841 149.533C368.214 150.791 369.363 152.766 369.805 153.97L369.829 154.038C371.201 157.925 372.755 161.739 374.346 165.54C377.398 172.827 380.677 180.003 383.948 187.191L383.987 187.314V187.314C383.289 186.779 382.544 186.293 381.906 185.821C380.298 184.628 378.642 183.493 376.988 182.363C373.956 180.289 370.842 178.352 367.677 176.492L367.043 176.121C365.462 175.199 363.895 174.451 362.018 174.728C360.275 174.985 358.653 175.923 357.078 176.684L356.915 176.763L352.048 179.079C352.568 177.002 353.131 174.935 353.719 172.876C354.866 168.859 356.127 164.876 357.495 160.928C358.773 157.24 360.154 153.592 361.615 149.973L362.055 148.887C362.65 147.397 363.243 145.772 364.945 145.313C366.647 144.854 368.598 145.535 370.153 144.564C370.294 144.476 370.277 144.242 370.106 144.199L369.146 143.957C367.345 143.509 365.233 143.057 363.529 143.494C361.675 143.969 360.141 145.526 359.242 147.145C358.242 148.946 357.537 150.962 356.778 152.883L356.658 153.185C355.787 155.358 354.949 157.545 354.147 159.745C352.544 164.143 351.085 168.594 349.765 173.085C349.128 175.249 348.524 177.424 347.944 179.604C347.777 180.231 347.502 180.991 347.276 181.784C347.017 182.037 346.772 182.318 346.543 182.64C346.162 183.173 346.435 183.799 346.909 184.118C346.927 184.664 347.048 185.177 347.338 185.617C348.468 187.334 351.456 186.892 351.335 184.583C351.317 184.229 351.179 183.892 350.971 183.607L350.977 183.561V183.561L351 183.476V183.476C351.519 183.227 352.04 182.95 352.589 182.679L357.698 180.152V180.152C359.177 179.42 360.817 178.289 362.462 178.01C363.996 177.75 365.615 178.894 366.933 179.584L367.018 179.628C370.204 181.263 373.367 182.952 376.517 184.655C378.055 185.486 379.573 186.352 381.105 187.194C382.385 187.897 383.768 188.907 385.207 189.304C385.822 189.783 386.553 189.719 387.14 189.357C386.872 191.02 386.888 192.727 386.806 194.427C386.695 196.7 386.678 198.98 386.642 201.256L386.627 202.11C386.53 207.142 386.478 212.176 386.459 217.209C386.391 235.132 386.589 253.061 386.635 270.985C386.659 279.99 386.837 289.003 387.071 298.005C387.17 301.819 387.377 305.629 387.601 309.438L387.724 311.515C387.984 315.899 388.138 320.33 388.949 324.654C389.055 325.218 390.008 325.233 390.102 324.654C390.848 320.021 390.889 315.286 391.033 310.598L391.063 309.661C391.235 304.628 391.317 299.597 391.3 294.561C391.236 276.631 390.77 258.711 390.389 240.786C390.198 231.779 390.069 222.769 389.772 213.765C389.623 209.26 389.454 204.758 389.255 200.255C389.165 198.244 389.08 196.236 388.946 194.228L388.886 193.368C388.844 192.806 388.811 192.252 388.77 191.703C390.583 192.365 392.24 191.138 393.871 190.299C395.75 189.331 397.628 188.362 399.508 187.397L401.389 186.433V186.433L405.154 184.509C406.85 183.643 408.156 182.782 409.964 183.797C416.478 187.456 422.464 192.323 427.889 197.431C428.929 198.41 431.127 198.147 431.39 196.505C432.516 189.492 431.831 182.378 431.257 175.343L431.045 172.732C430.788 169.612 430.509 166.493 430.136 163.387C429.969 161.997 429.804 160.608 429.62 159.221L429.479 158.181C429.249 156.537 429.099 154.903 428.61 153.326C428.764 153.276 428.913 153.194 429.046 153.068C430.517 151.671 429.807 149.247 429.136 147.585C428.473 145.945 427.463 144.513 426.197 143.281C425.921 143.012 425.532 142.839 425.141 142.83C422.072 140.795 418.705 139.779 415.202 140.89C415.103 140.419 415.003 139.949 414.897 139.48L414.79 139.011C414.517 137.847 414.416 135.925 413.413 135.146ZM381.961 318.938C381.008 318.676 379.966 318.952 379.268 319.65C378.57 320.349 378.294 321.392 378.557 322.345C378.688 322.815 378.925 323.222 379.268 323.568C379.589 323.887 379.963 324.114 380.39 324.251L380.489 324.28L380.645 324.345C381.122 324.474 381.6 324.474 382.077 324.345C382.533 324.217 382.929 323.986 383.266 323.652C383.599 323.315 383.83 322.919 383.958 322.462C384.087 321.984 384.087 321.506 383.958 321.028L383.893 320.873V320.873C383.762 320.403 383.525 319.996 383.182 319.65C382.837 319.307 382.429 319.069 381.961 318.938ZM325.416 223.95C325.26 223.77 325.006 224 325.104 224.191C326.587 227.102 328.24 229.992 329.865 232.829C329.735 233.615 329.606 234.395 329.457 235.155C328.824 238.395 328.049 241.577 327.543 244.848C325.726 256.606 324.783 268.491 323.974 280.354C323.162 292.26 323.058 304.171 322.936 316.1C322.926 317.134 323.72 318.335 324.785 318.53C325.272 318.619 325.637 318.602 326.123 318.53C327.231 318.367 327.924 317.097 327.972 316.1C328.289 309.433 328.717 302.774 329.212 296.118C330.09 284.316 330.626 272.484 331.335 260.67L331.585 256.541C331.853 252.067 332.098 247.59 332.177 243.11C332.231 240.141 332.072 237.174 332.17 234.209C332.26 231.471 332.537 228.495 331.934 225.805C331.912 225.705 331.752 225.679 331.707 225.776C331.08 227.097 330.683 228.532 330.377 229.998C328.761 227.953 327.116 225.903 325.416 223.95ZM431.242 151.641C431.016 151.624 431.025 151.965 431.242 151.99C434.413 152.358 437.476 153.65 440.469 154.748L440.726 154.841C443.75 155.94 446.699 157.217 449.537 158.739C455.085 161.716 460.18 165.555 464.684 169.949C482.669 187.491 490.865 212.786 496.87 236.558C500.207 249.765 502.58 263.196 504.118 276.729C504.879 283.422 505.416 290.141 505.73 296.87C505.89 300.319 505.991 303.771 506.034 307.223C506.055 308.991 506.062 310.76 506.06 312.528C506.059 313.338 505.914 314.358 506.131 315.145C506.331 315.874 506.898 316.516 507.317 317.123C507.813 317.844 508.705 317.806 509.209 317.123L509.394 316.875C509.931 316.162 510.456 315.48 510.533 314.549C510.615 313.55 510.557 312.521 510.561 311.517C510.57 309.496 510.545 307.475 510.504 305.454C510.426 301.581 510.274 297.71 510.047 293.843C509.587 285.995 508.83 278.163 507.746 270.377C505.818 256.537 502.929 242.829 499.145 229.379C495.575 216.691 491.346 204.04 485.321 192.287C479.726 181.375 472.388 171.223 462.704 163.597C458.201 160.05 453.298 157.095 448.013 154.869C445.348 153.746 442.548 152.83 439.702 152.307C436.886 151.791 434.084 151.863 431.242 151.641ZM381.415 296.51C380.912 296.507 380.352 296.617 379.92 296.896L379.344 297.342V297.342C379.188 297.542 379.032 297.744 378.877 297.946C378.517 298.416 378.469 299.177 378.544 299.737C378.561 300.111 378.672 300.459 378.877 300.782L379.316 301.35V301.35C379.738 301.695 380.09 301.94 380.601 302.106C380.868 302.192 381.125 302.21 381.381 302.197L381.466 302.192L381.415 302.199L381.505 302.189V302.189C381.588 302.181 381.672 302.172 381.756 302.161C381.813 302.154 381.871 302.15 381.928 302.142C381.983 302.137 382.036 302.135 382.091 302.14C382.74 302.201 383.393 301.833 383.854 301.409C384.269 301.028 384.642 300.219 384.584 299.645L384.559 299.405C384.515 299.001 384.48 298.842 384.308 298.436C384.142 298.041 383.91 297.692 383.593 297.397C382.988 296.834 382.246 296.516 381.415 296.51ZM383.425 266.921C382.563 265.981 381.083 265.912 380.015 266.48C379.754 266.619 379.515 266.841 379.286 267.027C378.707 267.495 378.48 268.339 378.448 269.051C378.417 269.754 378.787 270.589 379.286 271.075L379.407 271.192V271.192C379.704 271.482 380.131 271.734 380.547 271.81C381.219 271.934 381.783 271.93 382.409 271.666C382.947 271.439 383.41 271.074 383.725 270.579L383.776 270.495C383.798 270.46 383.818 270.425 383.837 270.389L383.865 270.334C384.464 269.182 384.303 267.877 383.425 266.921ZM382.979 237.175C382.59 237.053 382.202 237.036 381.813 237.123C381.549 237.124 381.303 237.19 381.075 237.323C380.828 237.392 380.613 237.517 380.43 237.699C380.211 237.829 380.036 238.004 379.906 238.224C379.648 238.506 379.473 238.838 379.383 239.219L379.279 239.996L379.383 240.774L379.678 241.473V241.473C379.759 241.579 379.84 241.685 379.923 241.79C380.053 242.011 380.228 242.187 380.448 242.317C380.591 242.459 380.756 242.566 380.939 242.64C381.59 243.107 382.457 243.259 383.228 243.046C383.686 242.918 384.084 242.686 384.421 242.351C384.756 242.013 384.988 241.615 385.116 241.157L385.168 240.791C385.236 240.3 385.247 240.028 385.108 239.404C385.048 239.13 384.871 238.743 384.779 238.58C384.383 237.885 383.738 237.408 382.979 237.175ZM349.235 215.775C348.119 215.768 347.003 215.77 345.887 215.782L345.05 215.793C343.649 215.815 342.449 215.671 341.348 216.644C340.548 217.35 340.9 218.535 341.659 219.067C342.809 219.873 344.251 219.467 345.573 219.379C346.967 219.285 348.362 219.207 349.758 219.145C352.46 219.024 355.164 218.947 357.868 218.935C360.567 218.923 363.271 218.949 365.969 218.992C368.715 219.037 371.575 219.293 374.305 219.008C374.68 218.969 374.765 218.476 374.395 218.347C371.821 217.456 368.927 217.167 366.23 216.827C363.449 216.475 360.667 216.226 357.868 216.065C354.994 215.9 352.114 215.796 349.235 215.775ZM382.983 207.024L382.891 207.026C382.4 207.027 381.94 207.142 381.512 207.373L381.42 207.424L380.831 207.879C380.47 208.244 380.22 208.673 380.082 209.167L379.977 209.942V209.942C379.962 210.343 380.046 210.718 380.228 211.066C380.346 211.427 380.547 211.74 380.831 212.004C381.095 212.288 381.407 212.489 381.768 212.607C382.089 212.776 382.432 212.86 382.799 212.86L382.891 212.858C383.417 212.857 383.907 212.724 384.361 212.46L384.951 212.004V212.004C385.312 211.64 385.562 211.211 385.7 210.717L385.805 209.942V209.942C385.82 209.54 385.736 209.165 385.554 208.818C385.436 208.457 385.235 208.144 384.951 207.879C384.687 207.595 384.375 207.394 384.013 207.277C383.693 207.108 383.35 207.024 382.983 207.024V207.024ZM374.345 138.51C373.718 137.6 372.58 138.41 372.743 139.141C372.7 141.197 372.595 143.191 372.128 145.204C371.914 146.126 371.634 147.048 371.201 147.893L371.02 148.248C370.46 149.354 370.026 150.398 370.78 151.611C371.135 152.184 371.776 152.613 372.472 152.583C375.557 152.45 375.981 148.151 376.169 145.752C376.362 143.28 375.761 140.564 374.345 138.51Z" fill="black"/>
<path fill-rule="evenodd" clip-rule="evenodd" d="M351.463 62.9352C360.788 38.3248 377.598 20.3059 405.937 31.6235C406.75 31.0683 407.811 30.9194 408.827 31.5695C424.265 41.293 435.382 56.8822 440.199 74.4607C443.131 75.0199 445.98 75.9952 448.525 77.5946C454.055 81.0706 457.776 86.6018 461.264 91.9888C462.313 93.6084 461.341 96.2897 459.37 96.6574C458.514 96.8175 457.666 96.9126 456.822 96.9376C457.027 97.6856 457.298 98.4083 457.642 99.0712C458.889 101.471 456.534 104.018 454.326 103.362C454.081 103.492 453.825 103.599 453.559 103.679C453.529 105.039 452.832 106.858 451.454 107.133C449.226 107.613 446.264 105.901 446.79 103.401C446.116 103.52 445.445 103.535 444.791 103.452C444.718 104.754 444.741 106.113 444.562 107.314C443.976 112.975 438.338 116.777 432.961 115.055C432.632 116.819 432.244 119.297 430.513 120.253C428.488 125.951 424.992 132.453 419.266 135.049C419.776 136.359 419.499 137.952 417.964 138.829C407.483 144.823 394.903 146.851 383.053 144.623C378.317 144.34 373.703 143.267 369.275 140.98C366.045 139.312 363.076 137.194 360.178 135.011C357.278 132.827 354.177 130.7 351.863 127.864C349.349 124.785 348.179 121.161 347.419 117.304C343.939 99.7979 345.141 82.6086 351.463 65.9322C359.288 45.2894 343.64 83.5791 351.463 62.9352Z" fill="#D08B5B"/>
<path fill-rule="evenodd" clip-rule="evenodd" d="M448.551 76.5879C439.847 71.4374 428.746 72.7705 423.516 80.7488C422.613 82.1261 421.99 83.6413 421.549 85.3952L421.478 85.6868L421.407 85.9936C421.179 87.0076 421.03 87.9619 420.827 89.5844L420.603 91.4254L420.539 91.927C420.321 93.5934 420.13 94.6459 419.832 95.7188L419.773 95.9269L419.429 97.1151L420.727 97.5963C423.215 98.4977 423.736 98.5782 425.172 97.8255C426.293 97.2377 426.878 96.4464 427.657 94.8427L427.769 94.608L428.018 94.0849L428.153 93.8092C428.66 92.7929 429.066 91.7093 429.64 91.3158C430.42 90.7813 432.878 90.5685 434.587 90.7792L434.676 90.7905L434.749 90.8059L434.876 90.8344C437.75 91.5159 440.37 93.8433 442.098 96.3026C443.489 98.283 444.288 100.778 444.386 103.37L444.392 103.543L444.426 104.866L447.212 104.806L447.185 104.291L447.226 104.383C448.104 106.239 450.309 107.475 452.154 106.246L452.22 106.201L452.287 106.153C453.845 105.003 454.032 102.675 452.754 101.261L452.695 101.197L452.637 101.139L452.649 101.133L452.662 101.129L452.671 101.128C453.106 101.208 453.489 101.432 454.006 101.909L454.139 102.034L454.407 102.324L454.683 102.621L454.802 102.743C454.878 102.82 454.948 102.887 455.013 102.947C455.102 103.028 455.183 103.096 455.272 103.158C455.355 103.215 455.44 103.265 455.543 103.31C455.797 103.42 456.068 103.473 456.415 103.387C456.891 103.27 457.16 102.981 457.322 102.641C457.385 102.509 457.421 102.387 457.447 102.259C457.474 102.125 457.487 101.988 457.494 101.83C457.498 101.727 457.5 101.614 457.499 101.491L457.496 101.298L457.489 101.088L457.482 100.921L457.451 100.301C457.338 98.2649 456.804 96.2653 455.891 94.3779L455.799 94.1895L455.764 94.1211L455.86 94.2495C456.482 95.0728 457.084 95.6437 457.835 96.0206L457.938 96.0708L458.039 96.1167C459.08 96.5756 460.129 96.3975 460.763 95.5467C461.201 94.9581 461.331 94.1833 461.241 93.3683C461.067 91.7869 460.443 90.3391 459.222 88.2264L459.051 87.9325L458.381 86.7927C455.799 82.4336 452.48 78.9123 448.551 76.5879Z" fill="#E8E1E1"/>
<path fill-rule="evenodd" clip-rule="evenodd" d="M396.546 26.8277C391.774 26.4897 386.914 27.2967 382.369 28.7403C375.121 31.0419 368.464 35.1037 362.994 40.3915C357.358 45.841 353.189 52.56 350.654 59.9808C347.597 68.9303 347.14 78.486 346.279 87.8283C345.845 92.5484 345.129 97.1964 344.384 101.871L344.266 102.609C343.539 107.163 343.13 111.769 344.135 116.317C345.805 123.874 350.813 130.289 356.757 135.029C368.968 144.766 387.977 150.703 402.195 141.743C404.394 140.356 402.31 136.811 400.163 138.256C398.651 139.273 397.05 140.164 395.333 140.78C388.16 143.351 380.282 142.435 373.193 140.043C366.206 137.686 359.502 133.703 354.347 128.389C348.932 122.806 345.931 115.911 346.365 108.065C346.624 103.396 347.684 98.8145 348.272 94.1842C348.794 90.0832 349.106 85.96 349.466 81.8424L349.598 80.3614C350.362 71.9722 351.459 63.3529 355.264 55.7379C358.465 49.3315 363.152 43.632 368.787 39.2304C374.687 34.6221 381.734 31.3992 389.128 30.1971C397.822 28.7836 406.146 31.354 413.399 36.1391C419.831 40.3828 425.362 46.0538 429.602 52.4884C431.659 55.6084 433.411 58.9404 434.923 62.3574C436.349 65.5768 437.332 68.951 438.478 72.2694C437.535 72.2412 436.576 72.2777 435.602 72.3856C430.607 72.9408 425.953 75.5375 422.991 79.6321C419.37 84.6354 420.349 90.777 418.934 96.4672C418.825 96.9088 419.011 97.3412 419.388 97.5855C421.532 98.9756 424.402 99.0219 426.477 97.4566C428.278 96.0981 429.124 93.6421 428.395 91.496C428.3 91.2163 427.894 91.2658 427.882 91.5657C427.745 95.2178 424.367 98.0301 421.056 96.2922C422.477 91.3857 421.729 85.9058 424.634 81.4739C429.776 73.63 440.415 73.3059 447.888 77.7277C451.821 80.0545 454.935 83.5531 457.253 87.4665L457.92 88.6025C458.809 90.1204 459.75 91.8376 459.934 93.5091C460.041 94.4738 459.686 95.3802 458.582 94.8942C457.69 94.5012 456.999 93.5841 456.469 92.7957C455.565 91.4511 453.487 92.6128 454.234 94.0446L454.259 94.0914C455.346 96.023 456.015 98.1515 456.138 100.369L456.169 100.983C456.19 101.431 456.205 102.067 456.11 102.09C455.997 102.118 455.211 101.208 455.08 101.082C454.449 100.474 453.799 99.977 452.921 99.8151C451.766 99.6028 450.602 101.036 451.604 101.975L451.646 102.013C452.54 102.793 452.5 104.348 451.512 105.077C450.118 106.106 448.401 104.426 448.199 103.043L448.192 102.992C448.013 101.497 445.944 101.444 445.832 102.992C445.587 106.35 449.573 109.165 452.606 107.471C453.805 106.801 454.567 105.575 454.806 104.261C455.189 104.464 455.602 104.605 456.039 104.643C457.46 104.77 458.47 103.767 458.7 102.422C458.968 100.854 458.809 99.1761 458.397 97.5483C459.169 97.735 459.981 97.6637 460.797 97.1912C463.266 95.762 462.557 92.583 461.625 90.4367C457.645 81.2755 449.399 72.9629 439.184 72.3029C439.128 70.6865 438.909 69.1584 438.552 67.5399C435.058 51.7088 423.738 37.0495 409.002 30.1979C405.064 28.367 400.888 27.1353 396.546 26.8277ZM435.192 90.067L435.052 90.0353C433.46 89.6912 429.27 89.287 429.775 91.9745C429.799 92.1008 429.982 92.0854 430.015 91.9745C430.509 90.2848 433.869 91.636 434.85 92.0429C436.203 92.6034 437.537 93.4303 438.641 94.3915C441.059 96.4963 442.679 99.4627 442.926 102.684C443.17 105.88 442.246 109.332 439.948 111.644C438.821 112.777 437.383 113.546 435.768 113.602C434.317 113.653 432.713 112.52 431.374 113.183C431.11 113.314 430.901 113.673 430.925 113.969C430.97 114.529 431.22 114.965 431.591 115.303C429.349 119.401 427.515 123.739 424.655 127.465C423.22 129.335 421.593 131.067 419.752 132.54C418.877 133.241 417.925 133.856 416.944 134.397C415.794 135.031 414.799 135.428 413.978 136.502C413.279 137.418 413.979 139.189 415.132 139.347C417.849 139.718 420.489 137.515 422.483 135.865C424.476 134.215 426.198 132.181 427.621 130.023C430.354 125.879 432.224 120.989 432.971 116.043C433.839 116.319 434.816 116.403 435.551 116.405C437.507 116.409 439.374 115.704 440.911 114.511C446.537 110.146 447.163 101.183 443.192 95.5314C441.292 92.827 438.405 90.8288 435.192 90.067ZM435.157 100.462C433.852 100.347 432.549 100.554 431.323 101L430.817 101.184C429.749 101.575 428.613 102.036 427.841 102.839C426.663 104.066 427.836 106.193 429.515 105.722C431.371 105.202 432.879 103.635 434.734 102.977C436.392 102.389 438.271 102.473 439.742 103.485C439.936 103.618 440.192 103.355 440.065 103.161C438.939 101.441 437.162 100.638 435.157 100.462Z" fill="black"/>
<path fill-rule="evenodd" clip-rule="evenodd" d="M376.013 125.379C377.799 124.65 379.392 123.433 380.557 121.879C380.962 121.339 381.067 120.769 380.982 120.247C380.886 119.661 380.54 119.129 380.067 118.772C379.592 118.415 378.999 118.238 378.426 118.328C377.927 118.406 377.431 118.679 377.038 119.246L376.956 119.359C376.264 120.297 375.362 121.067 374.333 121.562C373.342 122.04 372.234 122.264 371.087 122.134C368.902 121.887 367.397 120.704 365.796 119.098C365.598 118.896 365.4 118.686 365.2 118.474C365.074 118.281 364.899 118.158 364.705 118.093C364.49 118.021 364.246 118.025 364.023 118.103C363.807 118.178 363.615 118.32 363.486 118.51C363.363 118.69 363.294 118.913 363.316 119.169C363.463 120.834 364.332 122.319 365.567 123.485C366.938 124.781 368.756 125.677 370.467 125.991C372.352 126.337 374.273 126.089 376.013 125.379V125.379ZM369.577 99.7041C367.571 100.925 364.515 103.77 366.673 106.796C369.213 109.464 372.87 106.405 374.672 105.022C376.343 103.95 378.22 106.707 376.67 107.959C363.648 117.61 358.363 100.023 368.562 98.2691C369.685 98.0758 370.103 99.3265 369.577 99.7041ZM392.913 88.4778C392.692 85.7241 388.502 85.0988 388.085 87.8237C387.712 90.2646 388.151 92.5069 389.25 94.7045C390.299 96.804 392.937 95.8245 393.136 93.9127C393.404 91.3501 393.051 90.1908 392.913 88.4778ZM361.02 87.2587C360.436 86.493 359.593 85.9702 358.582 86.2656C355.425 87.1891 356.356 91.6755 357.464 93.8593C358.067 95.0452 360.014 95.3459 360.894 94.3018C362.329 92.599 363.015 89.1984 361.192 87.5212C361.142 87.4345 361.087 87.347 361.02 87.2587ZM389.294 76.4286L388.795 76.3412C387.253 76.0741 385.334 75.8175 384.243 77.059C383.664 77.7174 383.465 78.941 384.243 79.5712C385.612 80.68 387.125 80.2503 388.765 80.3441C390.116 80.4218 391.415 80.6457 392.717 81.0182C395.573 81.8353 397.9 83.3269 400.339 84.9649C400.659 85.1797 400.986 84.77 400.833 84.4703C399.425 81.7095 396.697 79.4417 393.963 78.0593C392.504 77.3214 390.908 76.7094 389.294 76.4286ZM363.898 75.1919L363.516 75.27C359.363 76.1392 353.966 77.8753 351.999 81.9593C351.924 82.5368 352.003 82.6605 352.068 82.7414L352.089 82.7683C352.142 82.8373 352.185 82.9325 352.435 83.0111C352.504 82.9946 352.574 82.9771 352.645 82.9585C353.547 82.722 354.26 82.3961 354.951 82.058L355.699 81.6887C356.568 81.2624 357.445 80.8515 358.373 80.5482C360.356 79.901 362.394 79.4451 364.465 79.2016C364.914 79.1489 365.346 78.9973 365.687 78.7375C366.01 78.4909 366.257 78.1494 366.37 77.6956C366.516 77.1082 366.474 76.6635 366.159 76.1336C365.923 75.7356 365.584 75.4598 365.195 75.3014C364.798 75.1399 364.347 75.1019 363.898 75.1919Z" fill="black"/>
<path fill-rule="evenodd" clip-rule="evenodd" d="M359.337 110.461C363.063 109.832 366.934 110.762 370.526 111.752C376.233 108.001 383.627 111.787 387.714 116.473C389.113 117.626 392.05 119.158 390.502 121.358C391.089 122.913 391.246 123.645 390.032 121.826C383.16 122.618 375.788 121.122 368.987 119.712C366.672 120.491 364.627 122.313 362.082 121.689C359.675 122.201 357.07 122.68 354.897 121.134C353.243 121.067 349.562 124.041 349.621 120.582C350.133 117.268 356.699 111.752 359.337 110.461Z" fill="#E8E1E1"/>
<path fill-rule="evenodd" clip-rule="evenodd" d="M356.544 121.103C360.589 121.551 364.691 120.892 368.078 118.541C368.432 118.296 368.78 118.298 369.064 118.442C369.41 118.404 369.763 118.542 369.968 118.937C370.819 120.577 373.638 120.212 375.188 120.245C380.257 120.343 385.503 120.063 390.381 121.597C385.716 112.468 379.263 108.527 369.279 112.111C370.18 112.837 365.682 111.136 365.287 111.104C358.379 109.371 352.68 115.171 349.896 120.918C352.002 120.416 354.362 120.861 356.544 121.103M346.895 122.656C349.941 115.789 355.947 108.237 364.324 109.424C366.044 109.677 367.853 110.854 369.585 110.641C374.598 108.788 378.737 107.846 383.758 110.843C385.888 111.002 397.877 125.86 392.18 124.647C385.187 120.627 373.028 124.413 368.686 120.818C360.16 126.42 353.228 120.335 348.424 123.836C347.588 124.603 346.416 123.648 346.895 122.656" fill="black"/>
<path fill-rule="evenodd" clip-rule="evenodd" d="M347.179 102.084C348.968 104.489 352.283 105.255 355.342 104.991C361.937 104.355 364.013 96.8565 364.23 91.0284C359.807 92.2738 364.604 83.453 349.484 82.4831C344.154 82.0385 345.624 85.2606 343.269 87.6148C343.317 92.5557 344.139 97.9244 347.179 102.084M378.595 96.4065C382.49 114.661 403.814 110.319 406.054 93.8638C403.985 92.4024 404.53 88.7939 401.96 87.4865C397.888 84.8818 392.797 84.9932 388.172 85.0544C382.26 85.4609 380.576 87.9122 377.539 90.5866C377.685 92.3729 378.106 94.4899 378.595 96.4065M338.732 79.4599C338.951 79.4235 339.169 79.3892 339.388 79.357C339.559 79.2599 339.76 79.1852 339.993 79.1403C340.525 79.005 341.054 78.9138 341.582 78.8646C349.161 77.1572 366.695 79.5814 367.418 86.0554C369.832 86.8619 371.92 86.1397 374.718 86.2115C376.847 77.3027 413.659 78.5601 415.429 83.9312C415.436 83.9293 415.442 83.9277 415.449 83.9256C417.15 83.3986 419.658 83.5257 421.605 83.4422C425.763 83.355 429.925 83.7259 433.992 84.6036C441.609 85.8153 452.005 87.2339 446.707 96.7551C446.706 96.7567 446.705 96.7585 446.704 96.7601L446.703 96.7593C445.79 97.6961 444.241 96.9417 444.183 95.6737C445.964 91.163 441.942 90.6214 438.846 89.3251C431.145 86.5556 423.304 86.1716 415.339 87.0283C414.74 87.7346 413.83 88.3504 412.869 88.6726C407.544 89.5575 410.35 93.5119 406.984 94.0871C407.603 107.872 390.884 115.396 381.196 106.334C377.328 102.549 376.406 96.9417 375.51 91.8873C375.036 91.7807 374.734 91.5212 374.558 91.1776C373.418 90.038 372.701 88.9856 370.446 88.6726C368.191 88.3599 366.455 88.9877 366.221 89.18C366.161 89.2994 366.098 89.419 366.024 89.5387C365.921 89.7171 365.781 89.8593 365.621 89.9713C367.848 103.698 357.202 112.379 346.455 105.259C341.786 100.862 340.799 94.1304 340.604 88.1217C339.971 87.7393 339.57 86.9983 339.789 86.0666C340.091 84.7823 339.383 83.6704 338.255 83.112C336.79 82.3869 337.049 79.7388 338.732 79.4599" fill="black"/>
<path fill-rule="evenodd" clip-rule="evenodd" d="M213.318 301.928C215.626 292.941 217.748 289.131 221.848 286.007C225.682 283.085 231.28 280.631 239.447 278.839C247.953 277.345 248.195 272.906 250.328 265.771C250.95 263.626 254.033 263.055 255.364 264.601C255.552 264.398 255.747 264.212 255.95 264.043C255.769 263.02 257.252 260.088 257.202 259.11C256.685 248.896 260.012 243.767 268.317 241.86C270.122 241.446 282.389 241.201 284.15 241.69C291.848 243.827 299.427 250.613 298.267 258.787C300.683 261.957 303.048 263.893 306.776 264.914C312.582 265.655 309.666 348.242 299.583 397.72C295.256 418.949 191.812 382.816 196.486 372.184C195.824 370.235 197.032 368.093 196.486 366.081C196.092 364.624 195.082 364.022 194.573 362.58C193.857 360.55 194.636 357.827 195.441 355.756C195.772 354.724 194.834 353.613 194.573 352.56C193.337 347.592 196.168 348.03 198.208 344.709C198.178 344.699 197.647 342.328 197.65 342.34C197.337 340.647 198.12 338.479 198.803 337.066C199.264 336.111 200.253 335.513 201.235 335.623C200.246 332.251 198.995 329.445 197.65 326.197C195.27 320.471 193.008 314.48 189.592 309.297C188.193 307.175 189.323 305.223 191.587 305.078C198.915 304.611 206.162 303.551 213.318 301.928Z" fill="#EDB98A"/>
<path fill-rule="evenodd" clip-rule="evenodd" d="M224.758 302.623L241.485 331.049C241.485 331.049 237.517 331.447 235.911 332.222C234.305 332.996 226.931 342.409 226.931 342.409L225.76 347.592L228.536 351.771L227.453 354.395C227.453 354.395 226.681 352.617 224.758 351.238C222.834 349.858 218.593 347.592 218.593 347.592C218.593 347.592 220.003 346.835 220.003 345.946C220.003 345.057 221.244 341.265 218.593 339.833C215.942 338.4 202.244 335.048 202.244 335.048L188.362 305.642L224.758 302.623Z" fill="#E00B80"/>
<path fill-rule="evenodd" clip-rule="evenodd" d="M299.376 265.107L246.262 274.468L221.846 286.007L217.861 289.09L241.484 331.049L277.96 337.732L287.253 361.971L285.356 389.293L226.017 382.188L200.42 379.134L194.403 403.527L195.49 413.561L197.071 418.65L260.526 435.853C260.526 435.853 292.838 432.708 298.566 432.708C304.294 432.708 346.289 436.896 346.289 436.896L356.006 435.853C356.006 435.853 377.504 413.1 380.838 405.003C384.173 396.905 391.383 347.681 391.383 347.681L390.589 340.118L372.015 292.119C372.015 292.119 369.535 289.858 366.408 286.007C363.281 282.156 299.376 265.107 299.376 265.107Z" fill="#9DDADB"/>
<path fill-rule="evenodd" clip-rule="evenodd" d="M203.248 334.442C208.048 334.687 212.853 335.833 217.195 337.909C218.972 338.76 220.581 339.988 221.053 342.009C221.291 343.041 221.233 344.107 221.106 345.15C221.01 345.939 220.986 346.947 220.303 347.481C220.187 347.572 220.062 347.641 219.933 347.691C221.534 348.417 223.06 349.29 224.415 350.188C225.654 351.01 226.928 352.275 227.499 353.703C227.547 353.541 227.595 353.39 227.642 353.246C228.617 350.353 230.118 347.984 232.482 346.391C232.751 345.409 235.632 341.18 238.309 341.339C241.239 341.512 243.597 341.727 246.247 343.081C247.213 343.059 248.177 343.073 249.13 343.115C249.294 343.121 249.287 343.344 249.13 343.362C248.357 343.461 247.584 343.57 246.811 343.698C244.974 343.993 243.141 344.368 241.349 344.833C239.199 345.392 236.975 345.952 234.966 346.928C231.069 348.824 228.656 353.781 229.152 358.093C229.234 358.8 229.506 360.938 230.484 360.717C231.309 360.531 231.638 358.8 231.926 358.16C232.699 356.458 234.092 355.346 235.763 354.594C237.724 353.708 239.824 353.11 241.858 352.414C243.009 352.018 244.161 351.621 245.315 351.228C246.496 350.821 247.619 350.26 248.876 350.544C249.636 350.717 249.723 351.627 249.297 352.148C248.648 352.943 247.685 353.177 246.75 353.504C245.516 353.934 244.285 354.365 243.054 354.796C241.151 355.461 239.157 356.022 237.301 356.835L237.359 356.968C237.51 356.926 237.688 357.077 237.658 357.263C237.38 358.984 236.994 360.973 237.423 362.696C237.762 364.062 238.956 365.576 240.507 365.174C240.264 364.951 240.174 364.565 240.338 364.209C240.952 362.89 249.001 357.684 249.718 359.617C249.742 359.686 249.668 359.736 249.61 359.726C248.998 359.598 247.973 360.646 247.484 360.978C246.777 361.457 246.059 361.925 245.36 362.417C244.595 362.954 243.848 363.518 243.12 364.1C242.548 364.557 242.117 365.033 241.461 365.265C241.804 365.429 242.077 365.735 242.194 366.126C242.49 367.144 243.062 368.008 244.055 368.458C245.095 368.926 246.268 368.63 247.364 368.745C248.858 368.896 250.16 369.609 251.248 370.628C253.533 372.77 254.68 376.546 257.875 377.559C259.784 378.163 261.902 377.783 263.835 377.509C265.993 377.203 268.095 376.961 270.269 377.28C272.35 377.586 274.317 378.309 276.218 379.192C278 380.019 279.969 380.955 281.55 382.188C281.876 381.181 282.204 380.184 282.453 379.155C283.041 376.722 283.358 374.244 283.435 371.744C283.507 369.365 283.374 366.974 283.171 364.605C283.07 363.422 282.911 362.244 282.81 361.06C282.784 360.763 282.731 360.444 282.691 360.125C279.869 358.452 276.904 357.171 273.915 355.852C273.906 355.849 273.899 355.844 273.891 355.841C273.798 355.798 273.708 355.759 273.615 355.719C273.618 355.713 273.621 355.708 273.626 355.703C273.284 355.493 273.046 355.213 272.903 354.9C268.595 352.031 264.995 348.114 262.31 343.546C261.185 341.632 260.102 339.645 258.63 337.968C257.063 336.178 255.201 335.114 252.898 334.561C250.205 333.913 247.431 333.524 244.672 333.304C243.165 333.184 241.482 332.998 239.84 333.006C238.696 333.014 237.576 333.112 236.549 333.397C235.027 333.817 234.137 334.979 233.181 336.154C232.268 337.282 231.36 338.412 230.507 339.587C229.7 340.701 228.937 341.852 228.275 343.059C227.878 343.783 227.51 344.527 227.2 345.296C227.092 345.567 226.949 345.875 226.883 346.157C226.816 346.442 226.938 346.742 226.62 346.742C227.931 346.761 228.802 350.043 227.499 349.965C225.668 349.858 224.747 347.653 225.106 345.697C225.746 342.207 229.204 337.991 229.888 337.098C231.4 335.125 232.959 332.551 235.379 331.634C235.413 331.621 235.45 331.608 235.485 331.597C234.78 330.927 234.224 330.124 233.692 329.307C233.144 328.467 232.49 327.505 232.31 326.507C232.196 325.872 232.983 325.51 233.356 326.066C233.899 326.877 234.161 327.903 234.566 328.794C234.979 329.698 235.482 330.552 235.879 331.464C236.835 331.169 237.867 331.033 238.919 330.988C237.592 329.185 235.326 325.707 235.053 325.26C233.798 323.192 232.604 321.059 231.463 318.924C230.229 316.611 229.173 314.202 227.992 311.862C227.322 310.535 226.647 309.198 225.903 307.911C225.646 307.469 225.371 307.028 225.058 306.626C224.998 306.547 224.921 306.48 224.849 306.406C224.767 306.361 224.682 306.31 224.635 306.284C224.206 306.036 224.055 305.462 223.753 305.098C223.271 304.51 222.705 304.441 221.979 304.433C220.433 304.417 218.882 304.478 217.338 304.521C215.069 304.584 212.803 304.675 210.536 304.794C209.851 304.832 209.168 304.869 208.482 304.911C205.186 305.108 201.892 305.366 198.606 305.683C195.699 305.962 192.792 306.417 189.883 306.635C193.822 316.034 198.191 325.263 203.137 334.171C203.187 334.261 203.224 334.351 203.248 334.442ZM225.103 358.657C225.739 358.949 226.356 359.313 226.93 359.728C226.835 359.082 226.811 358.401 226.838 357.718C226.364 358.229 225.757 358.521 225.103 358.657ZM197.979 342.488C198.024 342.493 198.067 342.517 198.088 342.562C198.967 344.383 198.599 346.418 197.164 347.845C196.412 348.59 194.773 349.43 194.826 350.653C194.871 351.642 195.943 352.472 196.401 353.288C196.828 354.049 196.986 354.884 196.645 355.708C196.208 356.763 194.988 357.184 194.569 358.221C194.04 359.537 194.9 361.124 195.504 362.27C196.065 363.331 196.791 364.392 197.272 365.514C200.5 367.192 207.823 370.239 208.705 370.409C209.78 370.619 210.857 370.819 211.938 371.005C214.011 371.366 216.089 371.701 218.172 371.997C219.359 372.164 220.547 372.329 221.736 372.459C222.774 372.571 223.944 372.722 224.781 371.938C226.467 370.353 225.522 367.697 224.455 366.096C224.434 366.065 224.434 366.035 224.442 366.009C223.436 365.772 222.432 365.495 221.432 365.301C219.507 364.929 217.569 364.616 215.628 364.336C211.641 363.764 207.627 363.387 203.619 363.007C202.626 362.911 202.615 361.342 203.619 361.436C209.377 361.965 215.165 362.467 220.846 363.581C222.271 363.858 223.685 364.171 225.091 364.525C225.755 364.69 226.467 364.948 227.164 364.956C227.206 364.956 227.249 364.956 227.291 364.953C228.654 364.911 228.853 363.738 228.104 362.762C228.011 362.642 227.916 362.523 227.818 362.409C226.494 360.824 224.845 359.765 223.145 358.67C221.241 358.409 219.343 357.83 217.479 357.404C212.877 356.351 208.276 355.298 203.672 354.248C202.769 354.041 203.153 352.647 204.056 352.852C207.55 353.647 211.045 354.442 214.54 355.237L219.655 356.402C220.677 356.633 221.953 357.099 223.155 357.266C223.748 357.348 224.323 357.359 224.842 357.237C226.518 356.838 226.602 354.735 225.88 353.485C225.069 352.081 223.539 351.204 222.181 350.409C219.827 349.029 217.323 348.037 214.876 346.893C214.442 346.798 214.008 346.702 213.574 346.606C211.048 346.048 208.162 345.774 205.784 344.751C205.072 344.447 205.462 343.32 206.166 343.336C208.011 343.376 209.941 344.035 211.744 344.426C213.695 344.851 215.649 345.274 217.601 345.697C217.796 345.739 218.956 346.112 219.131 346.029C219.242 345.976 219.282 345.588 219.319 345.333C219.438 344.492 219.525 343.61 219.396 342.767C219.11 340.876 217.54 339.988 215.951 339.262C212.414 337.648 208.535 336.638 204.675 336.234C203.785 336.141 202.896 336.082 202.001 336.053C200.95 336.021 200.084 335.835 199.552 336.875C198.715 338.512 198.255 340.619 197.979 342.488ZM202.893 401.874C203.663 399.197 203.454 396.338 203.982 393.608C204.254 392.199 204.626 390.802 205.032 389.427C205.36 388.316 205.907 387.134 205.969 385.975C205.972 385.897 205.882 385.853 205.819 385.888C204.732 386.514 203.897 387.866 203.277 388.927C202.534 390.196 201.967 391.526 201.51 392.924C200.599 395.708 199.851 399.067 201.026 401.874C201.376 402.709 202.604 402.877 202.893 401.874ZM232.973 422.139C234.121 421.335 234.958 420.209 235.932 419.216C236.89 418.24 235.393 416.735 234.434 417.712C233.603 418.559 232.882 419.617 231.904 420.303C231.433 420.632 231.215 421.228 231.524 421.758C231.796 422.226 232.503 422.468 232.973 422.139ZM239.378 391.203C237.281 390.293 235.219 389.301 233.025 388.646C231.713 388.253 231.158 390.307 232.462 390.696C234.483 391.301 236.378 392.202 238.309 393.04C239.548 393.578 240.626 391.745 239.378 391.203ZM261.518 390.566C262.03 389.296 259.98 388.748 259.475 390.001C258.894 391.443 258.227 392.847 257.645 394.289C257.133 395.559 259.182 396.107 259.688 394.855C260.269 393.413 260.936 392.008 261.518 390.566ZM283.374 415.938C283.716 416.395 284.285 416.643 284.823 416.319C285.274 416.048 285.549 415.327 285.203 414.864C284.193 413.513 283.171 412.178 281.988 410.973C281.028 409.997 279.531 411.502 280.49 412.477C281.546 413.553 282.472 414.731 283.374 415.938ZM286.497 273.58C285.524 274.247 284.673 275.057 283.842 275.89C282.877 276.86 284.375 278.364 285.34 277.394C286.04 276.692 286.746 275.979 287.566 275.417C288.039 275.092 288.252 274.487 287.946 273.961C287.671 273.49 286.969 273.256 286.497 273.58ZM254.702 307.81C255.252 308.916 255.747 309.999 255.778 311.255C255.812 312.624 257.93 312.625 257.896 311.255C257.855 309.611 257.252 308.186 256.531 306.737C255.922 305.51 254.096 306.589 254.702 307.81ZM243.036 280.319C241.898 279.556 240.838 281.4 241.967 282.156C242.882 282.768 243.797 283.381 244.712 283.993C245.85 284.755 246.91 282.912 245.781 282.157C244.866 281.544 243.951 280.931 243.036 280.319ZM293.639 328.385C293.833 329.737 295.874 329.159 295.681 327.82C295.383 325.751 295.02 323.709 294.461 321.693C294.095 320.375 292.052 320.938 292.419 322.259C292.977 324.275 293.341 326.316 293.639 328.385ZM301.062 352.752C302.426 352.723 302.426 350.596 301.062 350.625C299.829 350.651 298.616 350.977 297.426 351.275C296.102 351.608 296.666 353.658 297.989 353.327C298.995 353.074 300.019 352.774 301.062 352.752ZM303.805 401.836C304.273 402.065 304.754 402.271 305.227 402.489C306.175 402.924 307.123 403.36 308.07 403.796C310.044 404.706 312.016 405.619 313.987 406.535C317.932 408.369 321.907 410.138 325.861 411.952C329.894 413.802 333.916 415.677 337.933 417.561C339.825 418.448 341.732 419.303 343.635 420.167C345.262 420.906 347.274 422.197 349.06 422.319C349.152 422.325 349.183 422.209 349.13 422.149C348.455 421.378 347.379 420.93 346.492 420.429C345.586 419.917 344.663 419.435 343.744 418.947C341.829 417.927 339.911 416.917 337.977 415.933C334.109 413.967 330.234 412.016 326.357 410.067C322.404 408.078 318.456 406.077 314.468 404.16C312.59 403.257 310.711 402.357 308.83 401.459C307.811 400.973 306.792 400.488 305.772 400.004C305.332 399.794 304.896 399.568 304.446 399.381C303.848 399.133 303.394 399.183 302.777 399.03C301.771 398.781 301.335 400.066 302.107 400.625C302.743 401.086 303.078 401.48 303.805 401.836ZM317.945 423.648C318.162 423.117 317.707 422.472 317.205 422.339C316.604 422.18 316.122 422.547 315.902 423.082C315.322 424.501 314.495 425.802 313.43 426.902C312.479 427.884 313.975 429.388 314.928 428.406C316.262 427.028 317.22 425.418 317.945 423.648ZM328.347 389.504C329.312 388.534 327.814 387.03 326.849 388L324.104 390.756C323.138 391.726 324.637 393.23 325.602 392.261L328.347 389.504ZM356.51 385.01C358.484 385.591 360.785 386.125 362.131 387.816C362.197 387.899 362.307 387.793 362.268 387.71C360.545 384.124 355.605 382.866 352.185 381.61C349.766 380.721 347.284 379.984 344.781 379.325C345.031 376.458 344.341 373.384 344.101 370.531C343.845 367.484 343.637 364.429 343.53 361.373C343.42 358.255 343.394 355.117 343.496 351.998C343.598 348.891 344 345.823 344.175 342.726C344.192 342.426 343.777 342.412 343.688 342.66C342.648 345.533 342.204 348.716 341.866 351.746C341.517 354.867 341.402 357.98 341.446 361.119C341.492 364.347 341.679 367.567 341.936 370.785C342.057 372.31 342.198 373.833 342.332 375.357C342.433 376.52 342.48 377.674 342.716 378.8C341.207 378.428 339.694 378.076 338.185 377.734C333.376 376.644 328.546 375.633 323.757 374.454C321.406 373.875 319.088 373.183 316.748 372.567C314.544 371.988 312.218 371.285 309.955 371.027C309.148 370.934 309.045 372.044 309.579 372.42C311.418 373.717 313.861 374.62 315.985 375.346C318.117 376.074 320.333 376.598 322.518 377.138C327.075 378.263 331.674 379.184 336.268 380.142C340.854 381.1 345.45 382.05 349.985 383.231C352.169 383.8 354.345 384.371 356.51 385.01ZM367.324 328.102C368.503 328.797 369.567 326.958 368.392 326.265C366.855 325.359 365.216 324.678 363.565 324.014C362.297 323.504 361.752 325.562 363.001 326.065C364.486 326.662 365.942 327.288 367.324 328.102ZM371.593 407.13C372.776 407.818 373.841 405.98 372.662 405.293C371.006 404.329 369.193 403.686 367.477 402.843C366.256 402.242 365.184 404.078 366.408 404.68C368.124 405.523 369.937 406.166 371.593 407.13ZM373.513 362.27C372.37 363.361 370.844 363.874 369.406 364.447C368.151 364.946 368.701 367.003 369.969 366.498C371.761 365.784 373.587 365.133 375.011 363.774C376.002 362.829 374.501 361.327 373.513 362.27ZM360.865 301.347C359.609 301.842 360.159 303.898 361.429 303.398C362.837 302.843 364.291 302.421 365.699 301.867C366.955 301.371 366.405 299.315 365.135 299.815C363.727 300.37 362.273 300.792 360.865 301.347ZM338.554 277.148C337.219 276.922 336.65 278.972 337.991 279.2C339.655 279.482 341.293 279.812 342.871 280.425C344.146 280.92 344.692 278.862 343.434 278.374C341.856 277.761 340.218 277.43 338.554 277.148ZM331.181 336.066C332.406 335.461 331.331 333.628 330.112 334.229C328.828 334.864 327.497 335.354 326.095 335.654C324.761 335.939 325.329 337.989 326.658 337.705C328.236 337.367 329.737 336.779 331.181 336.066ZM324.218 302.878C322.9 302.516 322.342 304.568 323.655 304.93C325.965 305.565 328.343 305.896 330.67 306.461C331.996 306.784 332.557 304.732 331.233 304.41C328.906 303.844 326.528 303.514 324.218 302.878ZM294.682 292.464C293.341 292.713 293.912 294.763 295.245 294.515C296.663 294.252 298.1 294.247 299.538 294.246C300.903 294.246 300.901 292.119 299.538 292.119C297.905 292.12 296.292 292.165 294.682 292.464ZM198.346 303.577C201.806 303.244 205.272 302.979 208.743 302.779C208.905 302.771 209.064 302.76 209.225 302.752C209.244 302.715 209.267 302.68 209.291 302.643C210.424 300.973 211.258 299.304 211.981 297.416C212.672 295.618 213.342 293.765 214.406 292.143C215.62 290.295 217.259 288.849 219.055 287.596C220.145 288.332 221.156 289.193 222.081 290.107C223.054 291.067 224.552 289.563 223.579 288.602C222.757 287.791 221.879 287.041 220.952 286.364C222.023 285.711 223.115 285.096 224.181 284.485C228.177 282.196 232.267 280.079 236.442 278.144C238.383 277.242 240.347 276.442 242.325 275.631C243.39 275.195 244.441 274.634 245.505 274.129C245.428 273.374 245.653 272.528 246.23 272.031C246.657 271.666 246.988 271.531 247.496 271.273C247.61 271.233 247.679 271.209 247.71 271.196C247.687 271.201 247.618 271.222 247.504 271.26C247.234 271.385 247.213 271.347 247.44 271.151C247.454 270.72 248.298 269.811 248.491 269.367C249.164 267.843 249.373 266.232 250.366 264.844C251.735 262.932 254.033 262.209 256.175 262.857C256.397 260.557 256.455 258.157 257.318 256.104C257.342 256.048 257.419 256.024 257.453 256.085C258.354 257.625 258.43 259.34 258.499 261.116C258.565 262.783 258.502 264.487 258.285 266.144C258.423 266.25 258.563 266.352 258.708 266.45C259.392 266.902 260.128 267.25 260.901 267.508C262.373 267.997 263.916 268.21 265.46 268.284C269.444 268.476 273.551 268.072 277.469 267.386C281.433 266.692 287.509 265.649 291.035 263.658C293.363 262.344 295.51 260.741 297.686 259.188C296.897 256.635 296.696 253.891 297.49 251.735C297.586 251.477 297.988 251.429 298.065 251.735C298.563 253.793 298.708 255.862 299.37 257.896C299.381 257.925 299.391 257.957 299.402 257.986C299.608 257.846 299.815 257.707 300.021 257.569C300.498 257.252 301.147 257.489 301.433 257.941C306.005 265.176 313.246 265.591 320.85 266.883C329.172 268.298 337.535 269.824 345.536 272.592C353.188 275.24 360.5 279.096 366.293 284.855C367.605 286.159 368.831 287.548 369.988 288.999C368.868 289.141 367.758 289.361 366.661 289.707C365.363 290.117 365.921 292.17 367.225 291.758C368.634 291.314 370.058 291.094 371.498 290.984C375.434 296.392 378.503 302.524 381.157 308.559C386.247 320.131 389.561 332.455 391.085 345.002C390.248 344.498 389.396 344.018 388.523 343.572C387.309 342.952 386.239 344.788 387.453 345.408C388.803 346.098 390.113 346.857 391.383 347.681C391.938 353.173 392.153 358.701 392.022 364.219C391.713 377.376 389.944 390.918 385.944 403.471C383.982 409.631 381.382 415.742 377.508 420.948C375.756 423.306 373.765 425.434 371.419 427.207C370.283 428.069 369.081 428.837 367.813 429.486C366.179 430.326 364.051 430.603 362.642 431.791C362.179 432.182 361.821 432.698 361.551 433.28C361.708 434.386 361.726 435.495 361.424 436.601C361.329 436.947 361.069 437.229 360.749 437.364C360.744 437.46 360.744 437.553 360.744 437.643C360.744 437.686 360.68 437.697 360.672 437.654C360.659 437.572 360.646 437.489 360.633 437.404C360.529 437.439 360.421 437.455 360.31 437.455C356.288 437.47 352.261 437.372 348.234 437.234C348.546 436.276 348.883 435.327 349.207 434.369C349.646 433.067 347.6 432.514 347.164 433.803C346.785 434.923 346.389 436.033 346.037 437.157C341.722 436.996 337.409 436.803 333.103 436.66C323.945 436.354 314.79 436.253 305.629 436.059C291.404 435.756 277.074 435.136 262.827 435.743C262.334 434.692 261.782 433.666 261.259 432.63C260.643 431.408 258.816 432.485 259.43 433.704C259.794 434.424 260.17 435.134 260.528 435.853C257.643 436.003 254.76 436.202 251.883 436.474C246.975 436.936 242.113 437.758 237.21 438.269C232.225 438.789 227.348 438.697 222.402 437.87C221.512 437.721 220.988 437.181 220.771 436.511C220.763 436.508 220.758 436.503 220.753 436.495C220.499 436.197 220.26 435.95 220.014 435.734C219.72 435.543 219.402 435.381 219.029 435.237C218.333 434.971 217.607 434.809 216.871 434.7C216.061 434.578 215.24 434.567 214.43 434.466C213.747 434.378 213.08 434.248 212.413 434.089C211.213 433.802 210.075 433.427 208.942 432.929C207.954 432.496 207.062 431.874 206.22 431.195C204.478 429.917 202.969 428.284 201.65 426.588C200.882 425.596 200.16 424.567 199.503 423.495C198.359 421.639 197.385 419.711 196.4 417.768C196.043 417.192 195.717 416.602 195.418 416C197.343 415.43 199.287 414.966 201.327 414.933C202.691 414.911 202.691 412.784 201.327 412.806C198.987 412.843 196.773 413.392 194.574 414.047C194.467 413.761 194.364 413.473 194.269 413.181C194.007 412.572 193.79 411.947 193.61 411.315C193.504 411.027 193.398 410.74 193.292 410.453C193.054 409.459 192.815 408.461 192.574 407.464C192.095 405.869 191.717 404.25 191.439 402.609C191.206 401.53 191.026 400.442 190.904 399.341C190.533 396.674 190.231 394.013 190.21 391.317C190.242 389.655 190.348 387.996 190.528 386.344C190.605 385.222 190.734 384.105 190.909 382.997C191.137 381.348 191.362 379.716 191.74 378.088C192.024 376.988 192.307 375.887 192.59 374.786C193.297 372.491 194.131 370.242 195.092 368.043C195.145 367.905 195.413 367.601 195.574 367.599C195.696 367.596 195.866 367.708 195.81 367.857C195.804 367.87 195.799 367.886 195.794 367.899C195.849 367.774 195.902 367.647 195.958 367.522C196.006 367.405 196.191 367.171 196.334 367.174C196.342 367.174 196.35 367.174 196.36 367.176C196.323 367.15 196.289 367.115 196.254 367.075C195.304 365.945 194.687 364.458 194.007 363.15C193.443 362.071 192.911 360.933 192.757 359.712C192.622 358.641 192.805 357.585 193.475 356.718C194.237 355.732 195.672 355.269 194.875 353.844C193.97 352.222 192.638 350.815 193.964 348.973C194.639 348.034 195.709 347.519 196.503 346.702C197.417 345.758 197.851 344.495 197.827 343.206C197.772 343.237 197.697 343.222 197.671 343.142C196.903 340.812 197.459 338.255 198.245 335.986C198.674 334.756 199.583 334.418 200.639 334.357C196.064 325.383 191.783 316.265 187.968 306.937C187.84 306.632 187.716 306.326 187.592 306.02C187.406 305.563 187.798 304.954 188.251 304.853C191.55 304.127 194.986 303.896 198.346 303.577Z" fill="black"/>
<path fill-rule="evenodd" clip-rule="evenodd" d="M290.133 149.599C250.088 147.617 247.291 159.33 241.792 166.798C239.063 170.504 232.018 175.992 230.849 188.666C230.037 197.464 235.202 207.605 235.202 215.466C235.202 219.479 230.32 228.094 232.593 233.943C237.652 246.961 248.362 261.408 262.011 261.408C275.66 261.408 300.854 253.838 315.935 232.106C320.875 224.988 330.178 151.58 290.133 149.599Z" fill="#EDB98A"/>
<path fill-rule="evenodd" clip-rule="evenodd" d="M231.846 216.251C232.72 215.281 233.399 214.483 233.627 213.148C233.722 212.592 233.764 212.021 233.782 211.447C230.271 206.506 226.857 194.837 226.858 188.454C226.858 179.45 230.158 170.786 235.574 163.62C246.131 149.663 263.706 142.508 280.905 143.069C297.376 143.603 314.894 149.713 325.168 162.775C359.257 206.109 330.647 253.443 309.693 263.29C307.868 264.148 301.977 263.85 302.798 262.019C305.156 256.76 307.014 247.074 307.447 244.893C306.776 245.348 306.099 245.792 305.42 246.252C304.218 247.063 302.607 247.991 301.095 247.722C301.024 247.709 300.979 247.632 300.977 247.566C300.908 246.138 301.922 244.67 302.815 243.651C304.054 242.237 305.233 240.788 306.567 239.461C307.135 238.895 307.711 238.334 308.287 237.773C308.361 234.406 308.136 231.024 307.537 227.64C306.498 221.771 304.707 216.055 302.649 210.428C300.929 209.152 299.259 207.809 297.714 206.341C293.991 202.807 291.151 198.484 288.715 193.937C288.686 193.924 288.654 193.908 288.625 193.895C283.904 191.685 279.222 189.391 274.578 187.024C272.181 185.803 269.801 184.554 267.42 183.304C266.126 182.623 264.792 182.004 263.468 181.363C263.825 183.203 264.306 185.016 264.889 186.8C265.37 188.266 263.901 189.348 262.601 189.106C258.176 188.282 253.899 186.625 250.049 184.28C248.142 183.118 246.327 181.775 244.644 180.302C242.961 182.825 240.916 185.192 238.852 187.229C237.46 188.604 236.004 189.911 234.493 191.151C235.177 195.892 235.764 200.643 236.506 205.374C236.895 207.846 237.362 210.319 237.656 212.805C237.975 215.514 237.085 217.445 235.312 219.426C232.834 222.194 232.837 226.198 233.785 229.636C233.901 230.062 234.047 230.477 234.197 230.889C234.229 230.974 234.321 231.205 234.356 231.296C234.356 231.298 234.356 231.301 234.358 231.306C234.358 231.309 234.361 231.312 234.361 231.314C234.364 231.314 234.364 231.317 234.366 231.32V231.325V231.327L234.369 231.33C234.48 231.59 234.599 231.846 234.718 232.101C235.259 233.252 235.864 234.377 236.493 235.483C239.584 240.945 243.489 245.941 247.938 250.349C250.01 252.402 252.163 254.311 254.596 255.875C255.109 256.202 255.632 256.518 256.168 256.808C256.456 256.965 256.752 257.111 257.048 257.26C257.481 257.475 257.302 257.39 257.566 257.497C258.044 257.686 258.533 257.85 259.032 257.981C259.299 258.05 259.568 258.108 259.841 258.159C259.843 258.159 259.848 258.161 259.856 258.161C259.859 258.161 259.862 258.164 259.864 258.161C259.867 258.164 259.872 258.164 259.878 258.164C259.978 258.172 260.158 258.188 260.192 258.188C263.986 258.202 267.748 257.688 271.42 256.739C273.41 256.223 275.397 255.598 277.267 254.74C278.218 254.301 279.148 253.814 280.039 253.264C280.438 253.017 280.815 252.719 281.235 252.503C281.864 252.179 282.48 252.214 283.159 252.184C284.195 252.142 284.929 253.232 284.675 254.189C284.366 255.356 283.88 256.045 282.881 256.739C282.084 257.292 281.238 257.781 280.377 258.225C278.501 259.196 276.517 259.985 274.509 260.632C270.749 261.839 266.792 262.581 262.855 262.852C259.988 263.049 257.505 262.663 254.895 261.448C252.139 260.164 249.669 258.246 247.383 256.258C242.266 251.806 237.814 246.406 234.039 240.772C230.49 235.475 227.738 229.708 228.644 223.132C229.006 220.495 230.073 218.224 231.846 216.251" fill="black"/>
<path fill-rule="evenodd" clip-rule="evenodd" d="M260.847 241.134C262.627 240.405 264.215 239.189 265.376 237.635C265.78 237.095 265.884 236.524 265.8 236.003C265.704 235.416 265.359 234.884 264.887 234.528C264.415 234.17 263.823 233.994 263.252 234.083C262.755 234.162 262.26 234.435 261.869 235.001L261.787 235.115C261.097 236.052 260.198 236.822 259.173 237.318C258.185 237.796 257.08 238.019 255.937 237.889C253.76 237.642 252.259 236.46 250.664 234.854C250.466 234.651 250.268 234.442 250.07 234.229C249.944 234.037 249.77 233.913 249.576 233.848C249.362 233.776 249.119 233.78 248.896 233.858C248.681 233.933 248.49 234.076 248.361 234.265C248.239 234.446 248.169 234.669 248.192 234.925C248.338 236.589 249.204 238.074 250.435 239.241C251.802 240.536 253.613 241.432 255.319 241.746C257.198 242.092 259.113 241.844 260.847 241.134V241.134ZM254.431 215.459C252.432 216.68 249.385 219.526 251.536 222.551C254.068 225.219 257.713 222.16 259.509 220.777C261.175 219.705 263.046 222.462 261.501 223.714C248.521 233.365 243.254 215.779 253.42 214.024C254.539 213.831 254.955 215.082 254.431 215.459ZM277.691 204.233C277.47 201.479 273.294 200.854 272.879 203.579C272.507 206.02 272.945 208.262 274.04 210.46C275.086 212.559 277.715 211.58 277.914 209.668C278.18 207.105 277.829 205.946 277.691 204.233ZM245.903 203.014C245.321 202.248 244.48 201.726 243.473 202.021C240.326 202.944 241.254 207.431 242.359 209.615C242.959 210.801 244.9 211.101 245.777 210.057C247.207 208.354 247.892 204.954 246.074 203.276C246.025 203.19 245.97 203.102 245.903 203.014ZM274.084 192.184L273.587 192.097C272.049 191.829 270.137 191.573 269.049 192.814C268.472 193.473 268.274 194.696 269.049 195.326C270.413 196.435 271.921 196.006 273.556 196.099C274.903 196.177 276.198 196.401 277.495 196.773C280.342 197.591 282.662 199.082 285.093 200.72C285.412 200.935 285.738 200.525 285.585 200.226C284.182 197.465 281.462 195.197 278.738 193.815C277.284 193.077 275.692 192.465 274.084 192.184ZM248.77 190.947L248.39 191.025C244.249 191.894 238.87 193.631 236.91 197.715C236.835 198.292 236.914 198.416 236.978 198.497L237 198.524C237.053 198.593 237.095 198.688 237.344 198.766C237.413 198.75 237.483 198.732 237.554 198.714C238.452 198.477 239.163 198.151 239.852 197.813L240.598 197.444C241.464 197.018 242.337 196.607 243.263 196.303C245.239 195.656 247.271 195.2 249.335 194.957C249.782 194.904 250.213 194.753 250.552 194.493C250.875 194.246 251.121 193.905 251.234 193.451C251.379 192.863 251.337 192.419 251.024 191.889C250.788 191.491 250.45 191.215 250.062 191.057C249.667 190.895 249.217 190.857 248.77 190.947Z" fill="black"/>
</svg>
