<svg width="100" height="100" viewBox="0 0 100 100" fill="none" xmlns="http://www.w3.org/2000/svg">
<path fill-rule="evenodd" clip-rule="evenodd" d="M50.233 1.60463C50.3472 0.667481 51.6156 0 53.2406 0C60.6718 0.287968 67.9382 2.30512 74.478 5.89551C81.0177 9.48591 86.6557 14.5533 90.9559 20.7061C97.4946 30.1273 100.648 41.5382 99.8892 53.0331C99.1305 64.5281 94.5058 75.4111 86.7874 83.8646C79.0691 92.3182 68.7243 97.8304 57.4809 99.4808C46.2374 101.131 34.776 98.8198 25.0107 92.9327L4.95414 99.6155C4.2855 99.8357 3.5696 99.8627 2.88669 99.6934C2.20377 99.5242 1.58081 99.1655 1.08764 98.6574C0.594468 98.1494 0.250566 97.5121 0.0944769 96.817C-0.0616121 96.1218 -0.0237186 95.3964 0.203909 94.7219L7.09551 74.3064C0.789242 63.2281 -1.06222 50.1107 1.92633 37.6833C4.91489 25.256 12.5133 14.4756 23.1407 7.58509C30.2321 3.03216 38.3718 0.43357 46.7562 0.0458786H47.2237C48.8475 0.00215996 50.129 0.680533 50.233 1.60463ZM50.2311 1.86955C50.1177 2.8114 48.9088 3.62888 47.4649 3.73138C39.845 4.37945 32.5213 7.02112 26.2094 11.3982C19.8974 15.7754 14.8132 21.7382 11.4537 28.7041C8.16163 35.5254 6.6662 43.0946 7.11279 50.6755C7.55937 58.2564 9.93276 65.5912 14.0022 71.9666C14.2984 72.4098 14.4905 72.9159 14.5637 73.4461C14.6369 73.9763 14.5893 74.5165 14.4244 75.0251V75.1475L9.73453 89.8436L24.2114 84.8735C24.7598 84.6869 25.3423 84.6272 25.9164 84.6986C26.4905 84.7701 27.0415 84.9709 27.529 85.2864C32.9971 88.7856 39.1775 90.9797 45.6038 91.7029C52.0302 92.4261 58.5345 91.6596 64.6261 89.4612C70.735 87.2497 76.2749 83.6726 80.8353 78.995C85.3958 74.3174 88.8599 68.6591 90.971 62.4394C93.0784 56.1284 93.7659 49.4191 92.983 42.8036C92.2002 36.1881 89.9669 29.8342 86.447 24.2081C82.8093 18.5054 77.9512 13.7073 72.2337 10.1703C66.5162 6.63321 60.0862 4.44808 53.4216 3.77725H52.9842C51.5394 3.64539 50.3299 2.82568 50.2311 1.86955ZM46.4308 19.4857C46.6757 17.7768 47.337 16.1568 48.3549 14.7723L48.4152 14.6653C49.0311 14.5458 49.6593 14.5047 50.2852 14.5429C50.9111 14.5047 51.5392 14.5458 52.1551 14.6653C53.2127 16.1097 53.8803 17.809 54.0919 19.5952C54.3035 21.3815 54.0517 23.1928 53.3615 24.8501L61.8968 25.4771H62.0326C62.5 25.5994 62.9524 26.4711 62.9524 27.4804C62.9524 28.4897 62.5453 29.3767 62.0326 29.3767L49.7724 30.2942L48.2644 30.386C47.8891 30.4162 47.5163 30.4724 47.1485 30.5542C46.0992 30.787 45.111 31.2444 44.2502 31.8958C43.3893 32.5472 42.6757 33.3776 42.157 34.3315C41.5046 35.5339 41.2022 36.8994 41.2849 38.2692C41.3677 39.639 41.8322 40.9568 42.6245 42.0695C43.3927 43.1288 44.4372 43.9497 45.6405 44.4398C47.0982 44.9218 48.6404 45.0834 50.1645 44.9139C52.6976 44.7473 55.2376 45.1064 57.6292 45.9691C60.2286 47.0458 62.4613 48.8689 64.0533 51.2144C65.6096 53.5266 66.4583 56.2532 66.4932 59.0524C66.5281 61.8516 65.7475 64.5991 64.2493 66.9504C62.788 69.234 60.6876 71.0232 58.2173 72.0887C57.0114 72.6273 55.7286 72.968 54.4171 73.098C54.1109 73.1209 53.8034 73.1209 53.4972 73.098C54.1006 74.7316 54.2883 76.493 54.0432 78.2196C53.7981 79.9462 53.128 81.5823 52.0948 82.977C51.4997 83.1 50.891 83.1412 50.2852 83.0993C49.6743 83.1407 49.0607 83.0996 48.4605 82.977C47.3679 81.5433 46.6648 79.8443 46.4214 78.0493C46.178 76.2542 46.4027 74.4258 47.0731 72.7463L38.5528 72.104H38.402C37.9044 72.0581 37.4972 71.2476 37.4972 70.2536C37.4972 69.2596 37.9044 68.4032 38.402 68.4032L50.6622 67.4856L52.1702 67.3939C52.3327 67.3634 52.488 67.345 52.639 67.3272C52.8663 67.3004 53.0837 67.2747 53.3012 67.2104C54.3559 66.9762 55.3487 66.515 56.2125 65.8581C57.0762 65.2011 57.7908 64.3637 58.3078 63.4025C58.9616 62.1998 59.2635 60.8329 59.178 59.4622C59.0925 58.0916 58.6232 56.7741 57.8252 55.6645C57.0579 54.6007 56.0135 53.7746 54.8092 53.2789C53.3514 52.7974 51.8082 52.6409 50.2852 52.8201C47.7567 52.9942 45.2202 52.6349 42.8356 51.7649C40.2276 50.7035 37.9873 48.8839 36.3964 46.5349C34.8219 44.2163 33.9614 41.4761 33.9238 38.6612C33.8862 35.8463 34.6733 33.0834 36.1853 30.7224C37.6416 28.4307 39.743 26.6353 42.2173 25.5689C43.4278 25.0281 44.7159 24.6874 46.0326 24.5595H46.9525C46.3652 22.9386 46.186 21.1947 46.4308 19.4857Z" fill="#E00B80"/>
</svg>
