<svg width="72" height="32" viewBox="0 0 72 32" fill="none" xmlns="http://www.w3.org/2000/svg">
<path d="M41.4639 20.24C43.6719 20.24 45.2559 18.4 45.2559 15.76C45.2559 13.12 43.6719 11.28 41.4479 11.28C40.4559 11.28 39.6079 11.68 39.0639 12.288H39.0319V8.32001H37.4639V20H38.9359V19.184H38.9679C39.4959 19.84 40.4239 20.24 41.4639 20.24ZM41.2719 18.784C40.0239 18.784 39.0319 17.776 39.0319 16.496V15.008C39.0319 13.728 40.0239 12.736 41.3199 12.736C42.7599 12.736 43.6879 13.904 43.6879 15.76C43.6879 17.616 42.7439 18.784 41.2719 18.784Z" fill="black"/>
<path d="M50.2937 20.24C52.7097 20.24 54.3417 18.432 54.3417 15.76C54.3417 13.088 52.7097 11.28 50.2937 11.28C47.8617 11.28 46.2457 13.088 46.2457 15.76C46.2457 18.432 47.8617 20.24 50.2937 20.24ZM50.2937 18.784C48.7577 18.784 47.8137 17.616 47.8137 15.76C47.8137 13.904 48.7577 12.736 50.2937 12.736C51.8297 12.736 52.7737 13.904 52.7737 15.76C52.7737 17.616 51.8297 18.784 50.2937 18.784Z" fill="black"/>
<path d="M58.5 20.24C59.492 20.24 60.404 19.856 60.916 19.248H60.964V20H62.468V11.52H60.9V16.752C60.9 17.984 60.148 18.784 58.964 18.784C57.684 18.784 57.06 18.128 57.06 16.752V11.52H55.492V17.04C55.492 19.072 56.596 20.24 58.5 20.24Z" fill="black"/>
<path d="M64.7376 23.6H66.3536L71.3936 11.52H69.7456L67.3136 17.552H67.2816L64.8816 11.52H63.2336L66.4976 19.36L64.7376 23.6Z" fill="black"/>
<path d="M8.4946 29.1571L10.5714 17.379L24.4746 19.8305L23.4279 25.7663" stroke="black" stroke-width="2" stroke-linejoin="round"/>
<path d="M12.3093 17.6854L16.8463 4.14995L23.1027 5.25313L22.7367 19.524" stroke="black" stroke-width="2" stroke-linejoin="round"/>
<circle cx="20.2809" cy="2.96365" r="1.76471" transform="rotate(10 20.2809 2.96365)" stroke="black" stroke-width="2"/>
<path d="M1 27.9607C1 27.9607 4.52941 29.7254 8.94118 29.7254C13.3529 29.7254 18.2059 25.7548 23.0588 25.7548C27.9118 25.7548 31 27.9607 31 27.9607" stroke="black" stroke-width="2" stroke-linecap="round"/>
</svg>
