<svg width="500" height="500" viewBox="0 0 500 500" fill="none" xmlns="http://www.w3.org/2000/svg">
<path d="M24.4209 180.711C49.7458 107.938 90.7554 68.8842 161.89 38.958C232.383 9.30185 326.507 15.8755 395.588 48.6749C481.553 89.4913 522.167 156.132 487.807 244.728C469.764 291.251 421.763 290.822 395.588 333.323C366.886 379.926 401.033 434.61 357.784 468.217C320.109 497.493 281.188 498.9 236.353 482.507C184.952 463.714 197.046 398.987 148.716 373.334C108.356 351.912 68.691 384.135 33.0128 355.615C-20.4732 312.86 1.93936 245.313 24.4209 180.711Z" fill="#F4F9FA"/>
<path d="M358.739 381.945C354.489 383.245 350.866 385.532 350.777 388.536C350.687 391.54 355.25 394.051 361.467 392.661L363.123 392.302C372.084 389.76 380.004 384.421 385.731 377.059C391.459 369.698 394.695 360.698 394.971 351.366L395.329 335.36L396.582 271.692L397.432 207.98L397.879 176.101V160.184C398.128 154.368 397.993 148.541 397.476 142.743C396.501 136.018 394.11 129.578 390.462 123.85C386.814 118.122 381.993 113.237 376.318 109.519C370.6 105.813 364.169 103.354 357.442 102.3C351.647 101.696 345.821 101.457 339.996 101.583L276.657 101.314L149.217 101C142.262 101.145 135.416 102.766 129.132 105.757C122.848 108.748 117.268 113.041 112.761 118.352C108.234 123.657 104.907 129.883 103.009 136.6C101.399 142.801 100.75 149.212 101.086 155.611L101.399 219.323L102.562 346.793V350.784L102.875 355.716C103.241 359.052 103.945 362.342 104.978 365.535C108.123 375.079 114.219 383.37 122.383 389.207C130.547 395.044 140.353 398.122 150.38 397.996L214.033 396.696L341.159 393.961C346.438 393.961 350.642 391.495 350.642 388.581C350.642 385.666 346.438 383.245 341.159 383.155H339.683L212.557 380.465L149.441 379.3C145.495 379.07 141.641 378.014 138.127 376.199C134.614 374.384 131.519 371.851 129.043 368.763C126.58 365.681 124.81 362.102 123.854 358.271C122.94 353.941 122.653 349.501 123.004 345.089L124.167 217.619V193.811C208.913 201.075 294.122 201.075 378.868 193.811L380.165 273.127L381.418 336.839C381.418 341.996 381.731 347.78 381.418 352.443C381.264 359.166 378.96 365.662 374.844 370.973C370.729 376.285 365.021 380.131 358.56 381.945H358.739ZM124.167 181.571V153.907V149.961V147.181C124.412 145.356 124.816 143.556 125.375 141.801C127.161 136.494 130.586 131.895 135.154 128.671C139.722 125.446 145.196 123.763 150.782 123.867L278.267 123.732L341.875 123.284H349.793C351.784 123.244 353.774 123.379 355.742 123.687C359.457 124.27 362.999 125.663 366.12 127.767C369.307 129.946 372.002 132.773 374.029 136.063C376.055 139.354 377.369 143.035 377.884 146.868L378.465 181.571C293.854 174.315 208.779 174.315 124.167 181.571V181.571Z" fill="black"/>
<path d="M175.25 301.045C182.367 301.045 188.136 295.276 188.136 288.159C188.136 281.042 182.367 275.273 175.25 275.273C168.133 275.273 162.364 281.042 162.364 288.159C162.364 295.276 168.133 301.045 175.25 301.045Z" fill="black"/>
<path d="M175.25 351.364C182.367 351.364 188.136 345.594 188.136 338.477C188.136 331.361 182.367 325.591 175.25 325.591C168.133 325.591 162.364 331.361 162.364 338.477C162.364 345.594 168.133 351.364 175.25 351.364Z" fill="black"/>
<path d="M225.568 301.045C232.685 301.045 238.454 295.276 238.454 288.159C238.454 281.042 232.685 275.273 225.568 275.273C218.451 275.273 212.682 281.042 212.682 288.159C212.682 295.276 218.451 301.045 225.568 301.045Z" fill="black"/>
<path d="M225.568 351.364C232.685 351.364 238.454 345.594 238.454 338.477C238.454 331.361 232.685 325.591 225.568 325.591C218.451 325.591 212.682 331.361 212.682 338.477C212.682 345.594 218.451 351.364 225.568 351.364Z" fill="black"/>
<path d="M275.886 301.045C283.003 301.045 288.773 295.276 288.773 288.159C288.773 281.042 283.003 275.273 275.886 275.273C268.769 275.273 263 281.042 263 288.159C263 295.276 268.769 301.045 275.886 301.045Z" fill="black"/>
<path d="M275.886 351.364C283.003 351.364 288.773 345.594 288.773 338.477C288.773 331.361 283.003 325.591 275.886 325.591C268.769 325.591 263 331.361 263 338.477C263 345.594 268.769 351.364 275.886 351.364Z" fill="black"/>
<path d="M326.205 301.045C333.322 301.045 339.091 295.276 339.091 288.159C339.091 281.042 333.322 275.273 326.205 275.273C319.088 275.273 313.318 281.042 313.318 288.159C313.318 295.276 319.088 301.045 326.205 301.045Z" fill="black"/>
<path d="M225.568 250.727C232.685 250.727 238.454 244.958 238.454 237.841C238.454 230.724 232.685 224.955 225.568 224.955C218.451 224.955 212.682 230.724 212.682 237.841C212.682 244.958 218.451 250.727 225.568 250.727Z" fill="black"/>
<path d="M275.886 250.727C283.003 250.727 288.773 244.958 288.773 237.841C288.773 230.724 283.003 224.955 275.886 224.955C268.769 224.955 263 230.724 263 237.841C263 244.958 268.769 250.727 275.886 250.727Z" fill="black"/>
<path d="M326.205 250.727C333.322 250.727 339.091 244.958 339.091 237.841C339.091 230.724 333.322 224.955 326.205 224.955C319.088 224.955 313.318 230.724 313.318 237.841C313.318 244.958 319.088 250.727 326.205 250.727Z" fill="black"/>
</svg>
