<svg width="100" height="100" viewBox="0 0 100 100" fill="none" xmlns="http://www.w3.org/2000/svg">
<path d="M52.1372 96.6824C64.9063 93.1632 76.1832 85.6133 84.2732 75.1673C92.3632 64.7214 96.8292 51.9437 97 38.7545C97 30.3409 96.9075 22.1269 96.7533 13.8055V13.5752C96.726 13.0841 96.6003 12.6033 96.3836 12.1614C96.1668 11.7194 95.8633 11.3251 95.4911 11.0017C95.1188 10.6783 94.6853 10.4324 94.2161 10.2785C93.7468 10.1245 93.2514 10.0656 92.7589 10.1053C85.6329 10.6033 78.472 10.1645 71.4611 8.8003C64.4444 7.57065 57.8276 4.67979 52.1681 0.371365V0.371365C51.8967 0.243103 51.5952 0.191045 51.2963 0.220807C50.9973 0.250569 50.7122 0.361023 50.4717 0.540252C50.3329 0.217834 50.1015 0.279246 49.8548 0.878023C50.3329 0.0182402 49.5926 -0.380945 47.8191 0.478838L47.3718 0.739843C46.7982 1.10015 46.2471 1.49495 45.7217 1.92204L44.6267 2.62829L42.4522 4.02544C40.953 4.86208 39.4084 5.61554 37.8256 6.28237C34.6049 7.6331 31.2572 8.66171 27.8321 9.35302C20.9318 10.7275 13.8765 11.1665 6.85809 10.658H6.68844C5.85067 10.6454 5.04117 10.9596 4.43307 11.5334C3.82497 12.1073 3.46652 12.8952 3.43439 13.7287V13.7287L3.00257 37.9254C2.92464 46.5233 4.61683 55.0459 7.97479 62.9677C11.3327 70.8894 16.2853 78.0423 22.5269 83.9852C28.7832 89.936 36.1856 94.5634 44.2874 97.5882L47.3718 98.6169L48.1275 98.8779L48.4976 99.1542H48.5902C45.6446 101.457 49.6543 98.5248 52.1372 96.6824ZM70.0885 14.7113C76.3372 16.429 82.7769 17.3626 89.2581 17.4902L88.9651 38.7085C88.8131 46.4912 87.1149 54.167 83.9684 61.2931C78.0137 74.8468 67.2451 85.7368 53.7257 91.8768V87.4243L53.5098 74.85C53.3247 66.4518 53.0471 58.0843 52.7079 49.7935C52.0601 34.1639 51.289 19.087 50.7801 4.20968C56.2928 9.1792 62.9096 12.778 70.0885 14.7113V14.7113ZM28.0326 78.2892C22.6064 73.0122 18.2319 66.761 15.1397 59.8652C12.1531 52.9158 10.5153 45.4662 10.3126 37.9101L9.9425 16.9375C16.4457 16.875 22.916 16.0086 29.2046 14.3582C32.9336 13.3939 36.5516 12.0457 40.0001 10.3356C41.7263 9.47239 43.4 8.50858 45.0123 7.44922L47.341 5.7143C48.2972 5.03876 48.5131 4.77775 48.6673 4.17897C48.8019 3.4833 49.0247 2.80747 49.3304 2.1677C49.3144 2.36672 49.3461 2.5667 49.423 2.75112C49.2979 3.41005 49.2206 4.07708 49.1916 4.74704V5.10017C48.6981 21.6049 47.8499 37.7105 47.1713 53.3248C46.8321 61.1396 46.5545 68.8623 46.3694 76.585L46.1381 88.1613V89.9423C39.4401 87.1886 33.3041 83.2393 28.0326 78.2892V78.2892Z" fill="#E00B80"/>
</svg>
